  0
SECTION
  2
HEADER
  9
$ANGBASE
  50
0.0
  9
$ANGDIR
  70
1
  9
$MEASUREMENT
  70
1
  0
ENDSEC
  0
SECTION
  2
TABLES
  0
TABLE
  2
LTYPE
  70
4
  0
LTYPE
  5
40F
  2
CONTINUOUS
  70
0
  3
Solid line
  72
65
  73
0
  40
0.0
  0
LTYPE
  5
410
  2
DASHDOT
 70
0
  3
Dash Dot ____ _ ____ _
 72
65
 73
4
 40
2.0
 49
1.25
 49
-0.25
 49
0.25
 49
-0.25
  0
LTYPE
  5
411
  2
DASHED
 70
0
  3
Dashed __ __ __ __ __
 72
65
 73
2
 40
0.75
 49
0.5
 49
-0.25
  0
LTYPE
  5
43B
  2
DOTTED
 70
0
  3
Dotted .  .  .  .
 72
65
 73
2
 40
0.2
 49
0.0
 49
-0.2
  0
ENDTAB
  0
TABLE
  2
STYLE
  70
4
  0
STYLE
  2
KICAD
  70
0
  40
0
  41
1
  42
1
  50
0
  71
0
  3
isocp.shx
  0
STYLE
  2
KICADB
  70
0
  40
0
  41
1
  42
1
  50
0
  71
0
  3
isocp.shx
  0
STYLE
  2
KICADI
  70
0
  40
0
  41
1
  42
1
  50
15
  71
0
  3
isocp.shx
  0
STYLE
  2
KICADBI
  70
0
  40
0
  41
1
  42
1
  50
15
  71
0
  3
isocp.shx
  0
ENDTAB
  0
TABLE
  2
LAYER
  70
1
  0
LAYER
  2
BLACK
  70
0
  62
7
  6
CONTINUOUS
  0
ENDTAB
  0
ENDSEC
  0
SECTION
  2
ENTITIES
0
LINE
8
BLACK
6
CONTINUOUS
10
41.9137
20
1.345
11
41.9247
21
1.34391
0
LINE
8
BLACK
6
CONTINUOUS
10
41.9247
20
1.34391
11
41.9388
21
1.33962
0
LINE
8
BLACK
6
CONTINUOUS
10
41.9388
20
1.33962
11
41.9519
21
1.33266
0
LINE
8
BLACK
6
CONTINUOUS
10
41.9519
20
1.33266
11
41.9633
21
1.32329
0
LINE
8
BLACK
6
CONTINUOUS
10
41.9633
20
1.32329
11
41.9727
21
1.31187
0
LINE
8
BLACK
6
CONTINUOUS
10
41.9727
20
1.31187
11
41.9796
21
1.29884
0
LINE
8
BLACK
6
CONTINUOUS
10
41.9796
20
1.29884
11
41.9839
21
1.2847
0
LINE
8
BLACK
6
CONTINUOUS
10
41.9839
20
1.2847
11
41.9854
21
1.27
0
LINE
8
BLACK
6
CONTINUOUS
10
41.9854
20
1.27
11
41.985
21
1.26632
0
LINE
8
BLACK
6
CONTINUOUS
10
41.985
20
1.26632
11
41.985
21
-1.90132
0
LINE
8
BLACK
6
CONTINUOUS
10
41.985
20
-1.90132
11
41.9854
21
-1.905
0
LINE
8
BLACK
6
CONTINUOUS
10
41.9854
20
-1.905
11
41.985
21
-1.90868
0
LINE
8
BLACK
6
CONTINUOUS
10
41.985
20
-1.90868
11
41.985
21
-19.0463
0
LINE
8
BLACK
6
CONTINUOUS
10
41.985
20
-19.0463
11
41.9854
21
-19.05
0
LINE
8
BLACK
6
CONTINUOUS
10
41.9854
20
-19.05
11
41.9839
21
-19.0647
0
LINE
8
BLACK
6
CONTINUOUS
10
41.9839
20
-19.0647
11
41.9796
21
-19.0788
0
LINE
8
BLACK
6
CONTINUOUS
10
41.9796
20
-19.0788
11
41.9727
21
-19.0919
0
LINE
8
BLACK
6
CONTINUOUS
10
41.9727
20
-19.0919
11
41.9633
21
-19.1033
0
LINE
8
BLACK
6
CONTINUOUS
10
41.9633
20
-19.1033
11
41.9519
21
-19.1127
0
LINE
8
BLACK
6
CONTINUOUS
10
41.9519
20
-19.1127
11
41.9388
21
-19.1196
0
LINE
8
BLACK
6
CONTINUOUS
10
41.9388
20
-19.1196
11
41.9247
21
-19.1239
0
LINE
8
BLACK
6
CONTINUOUS
10
41.9247
20
-19.1239
11
41.9137
21
-19.125
0
LINE
8
BLACK
6
CONTINUOUS
10
41.9137
20
-19.125
11
41.91
21
-19.1254
0
LINE
8
BLACK
6
CONTINUOUS
10
41.91
20
-19.1254
11
41.9063
21
-19.125
0
LINE
8
BLACK
6
CONTINUOUS
10
41.9063
20
-19.125
11
38.81
21
-19.125
0
LINE
8
BLACK
6
CONTINUOUS
10
38.81
20
-19.125
11
38.81
21
-21.515
0
LINE
8
BLACK
6
CONTINUOUS
10
38.81
20
-21.515
11
41.9063
21
-21.515
0
LINE
8
BLACK
6
CONTINUOUS
10
41.9063
20
-21.515
11
41.91
21
-21.5146
0
LINE
8
BLACK
6
CONTINUOUS
10
41.91
20
-21.5146
11
41.9137
21
-21.515
0
LINE
8
BLACK
6
CONTINUOUS
10
41.9137
20
-21.515
11
41.9247
21
-21.5161
0
LINE
8
BLACK
6
CONTINUOUS
10
41.9247
20
-21.5161
11
41.9388
21
-21.5204
0
LINE
8
BLACK
6
CONTINUOUS
10
41.9388
20
-21.5204
11
41.9519
21
-21.5273
0
LINE
8
BLACK
6
CONTINUOUS
10
41.9519
20
-21.5273
11
41.9633
21
-21.5367
0
LINE
8
BLACK
6
CONTINUOUS
10
41.9633
20
-21.5367
11
41.9727
21
-21.5481
0
LINE
8
BLACK
6
CONTINUOUS
10
41.9727
20
-21.5481
11
41.9796
21
-21.5612
0
LINE
8
BLACK
6
CONTINUOUS
10
41.9796
20
-21.5612
11
41.9839
21
-21.5753
0
LINE
8
BLACK
6
CONTINUOUS
10
41.9839
20
-21.5753
11
41.9854
21
-21.59
0
LINE
8
BLACK
6
CONTINUOUS
10
41.9854
20
-21.59
11
41.985
21
-21.5937
0
LINE
8
BLACK
6
CONTINUOUS
10
41.985
20
-21.5937
11
41.985
21
-38.7313
0
LINE
8
BLACK
6
CONTINUOUS
10
41.985
20
-38.7313
11
41.9854
21
-38.735
0
LINE
8
BLACK
6
CONTINUOUS
10
41.9854
20
-38.735
11
41.985
21
-38.7387
0
LINE
8
BLACK
6
CONTINUOUS
10
41.985
20
-38.7387
11
41.985
21
-41.9063
0
LINE
8
BLACK
6
CONTINUOUS
10
41.985
20
-41.9063
11
41.9854
21
-41.91
0
LINE
8
BLACK
6
CONTINUOUS
10
41.9854
20
-41.91
11
41.9839
21
-41.9247
0
LINE
8
BLACK
6
CONTINUOUS
10
41.9839
20
-41.9247
11
41.9796
21
-41.9388
0
LINE
8
BLACK
6
CONTINUOUS
10
41.9796
20
-41.9388
11
41.9727
21
-41.9519
0
LINE
8
BLACK
6
CONTINUOUS
10
41.9727
20
-41.9519
11
41.9633
21
-41.9633
0
LINE
8
BLACK
6
CONTINUOUS
10
41.9633
20
-41.9633
11
41.9519
21
-41.9727
0
LINE
8
BLACK
6
CONTINUOUS
10
41.9519
20
-41.9727
11
41.9388
21
-41.9796
0
LINE
8
BLACK
6
CONTINUOUS
10
41.9388
20
-41.9796
11
41.9247
21
-41.9839
0
LINE
8
BLACK
6
CONTINUOUS
10
41.9247
20
-41.9839
11
41.9137
21
-41.985
0
LINE
8
BLACK
6
CONTINUOUS
10
41.9137
20
-41.985
11
41.91
21
-41.9854
0
LINE
8
BLACK
6
CONTINUOUS
10
41.91
20
-41.9854
11
41.9063
21
-41.985
0
LINE
8
BLACK
6
CONTINUOUS
10
41.9063
20
-41.985
11
38.7387
21
-41.985
0
LINE
8
BLACK
6
CONTINUOUS
10
38.7387
20
-41.985
11
38.735
21
-41.9854
0
LINE
8
BLACK
6
CONTINUOUS
10
38.735
20
-41.9854
11
38.7313
21
-41.985
0
LINE
8
BLACK
6
CONTINUOUS
10
38.7313
20
-41.985
11
21.5937
21
-41.985
0
LINE
8
BLACK
6
CONTINUOUS
10
21.5937
20
-41.985
11
21.59
21
-41.9854
0
LINE
8
BLACK
6
CONTINUOUS
10
21.59
20
-41.9854
11
21.5863
21
-41.985
0
LINE
8
BLACK
6
CONTINUOUS
10
21.5863
20
-41.985
11
21.5753
21
-41.9839
0
LINE
8
BLACK
6
CONTINUOUS
10
21.5753
20
-41.9839
11
21.5612
21
-41.9796
0
LINE
8
BLACK
6
CONTINUOUS
10
21.5612
20
-41.9796
11
21.5481
21
-41.9727
0
LINE
8
BLACK
6
CONTINUOUS
10
21.5481
20
-41.9727
11
21.5367
21
-41.9633
0
LINE
8
BLACK
6
CONTINUOUS
10
21.5367
20
-41.9633
11
21.5273
21
-41.9519
0
LINE
8
BLACK
6
CONTINUOUS
10
21.5273
20
-41.9519
11
21.5204
21
-41.9388
0
LINE
8
BLACK
6
CONTINUOUS
10
21.5204
20
-41.9388
11
21.5161
21
-41.9247
0
LINE
8
BLACK
6
CONTINUOUS
10
21.5161
20
-41.9247
11
21.5146
21
-41.91
0
LINE
8
BLACK
6
CONTINUOUS
10
21.5146
20
-41.91
11
21.515
21
-41.9063
0
LINE
8
BLACK
6
CONTINUOUS
10
21.515
20
-41.9063
11
21.515
21
-38.81
0
LINE
8
BLACK
6
CONTINUOUS
10
21.515
20
-38.81
11
19.125
21
-38.81
0
LINE
8
BLACK
6
CONTINUOUS
10
19.125
20
-38.81
11
19.125
21
-41.9063
0
LINE
8
BLACK
6
CONTINUOUS
10
19.125
20
-41.9063
11
19.1254
21
-41.91
0
LINE
8
BLACK
6
CONTINUOUS
10
19.1254
20
-41.91
11
19.1239
21
-41.9247
0
LINE
8
BLACK
6
CONTINUOUS
10
19.1239
20
-41.9247
11
19.1196
21
-41.9388
0
LINE
8
BLACK
6
CONTINUOUS
10
19.1196
20
-41.9388
11
19.1127
21
-41.9519
0
LINE
8
BLACK
6
CONTINUOUS
10
19.1127
20
-41.9519
11
19.1033
21
-41.9633
0
LINE
8
BLACK
6
CONTINUOUS
10
19.1033
20
-41.9633
11
19.0919
21
-41.9727
0
LINE
8
BLACK
6
CONTINUOUS
10
19.0919
20
-41.9727
11
19.0788
21
-41.9796
0
LINE
8
BLACK
6
CONTINUOUS
10
19.0788
20
-41.9796
11
19.0647
21
-41.9839
0
LINE
8
BLACK
6
CONTINUOUS
10
19.0647
20
-41.9839
11
19.0537
21
-41.985
0
LINE
8
BLACK
6
CONTINUOUS
10
19.0537
20
-41.985
11
19.05
21
-41.9854
0
LINE
8
BLACK
6
CONTINUOUS
10
19.05
20
-41.9854
11
19.0463
21
-41.985
0
LINE
8
BLACK
6
CONTINUOUS
10
19.0463
20
-41.985
11
1.90867
21
-41.985
0
LINE
8
BLACK
6
CONTINUOUS
10
1.90867
20
-41.985
11
1.905
21
-41.9854
0
LINE
8
BLACK
6
CONTINUOUS
10
1.905
20
-41.9854
11
1.90132
21
-41.985
0
LINE
8
BLACK
6
CONTINUOUS
10
1.90132
20
-41.985
11
-1.26632
21
-41.985
0
LINE
8
BLACK
6
CONTINUOUS
10
-1.26632
20
-41.985
11
-1.27
21
-41.9854
0
LINE
8
BLACK
6
CONTINUOUS
10
-1.27
20
-41.9854
11
-1.27367
21
-41.985
0
LINE
8
BLACK
6
CONTINUOUS
10
-1.27367
20
-41.985
11
-1.2847
21
-41.9839
0
LINE
8
BLACK
6
CONTINUOUS
10
-1.2847
20
-41.9839
11
-1.29884
21
-41.9796
0
LINE
8
BLACK
6
CONTINUOUS
10
-1.29884
20
-41.9796
11
-1.31187
21
-41.9727
0
LINE
8
BLACK
6
CONTINUOUS
10
-1.31187
20
-41.9727
11
-1.32329
21
-41.9633
0
LINE
8
BLACK
6
CONTINUOUS
10
-1.32329
20
-41.9633
11
-1.33266
21
-41.9519
0
LINE
8
BLACK
6
CONTINUOUS
10
-1.33266
20
-41.9519
11
-1.33962
21
-41.9388
0
LINE
8
BLACK
6
CONTINUOUS
10
-1.33962
20
-41.9388
11
-1.34391
21
-41.9247
0
LINE
8
BLACK
6
CONTINUOUS
10
-1.34391
20
-41.9247
11
-1.34536
21
-41.91
0
LINE
8
BLACK
6
CONTINUOUS
10
-1.34536
20
-41.91
11
-1.345
21
-41.9063
0
LINE
8
BLACK
6
CONTINUOUS
10
-1.345
20
-41.9063
11
-1.345
21
-38.7387
0
LINE
8
BLACK
6
CONTINUOUS
10
-1.345
20
-38.7387
11
-1.34536
21
-38.735
0
LINE
8
BLACK
6
CONTINUOUS
10
-1.34536
20
-38.735
11
-1.345
21
-38.7313
0
LINE
8
BLACK
6
CONTINUOUS
10
-1.345
20
-38.7313
11
-1.345
21
-21.5937
0
LINE
8
BLACK
6
CONTINUOUS
10
-1.345
20
-21.5937
11
-1.34536
21
-21.59
0
LINE
8
BLACK
6
CONTINUOUS
10
-1.34536
20
-21.59
11
-1.34391
21
-21.5753
0
LINE
8
BLACK
6
CONTINUOUS
10
-1.34391
20
-21.5753
11
-1.33962
21
-21.5612
0
LINE
8
BLACK
6
CONTINUOUS
10
-1.33962
20
-21.5612
11
-1.33266
21
-21.5481
0
LINE
8
BLACK
6
CONTINUOUS
10
-1.33266
20
-21.5481
11
-1.32329
21
-21.5367
0
LINE
8
BLACK
6
CONTINUOUS
10
-1.32329
20
-21.5367
11
-1.31187
21
-21.5273
0
LINE
8
BLACK
6
CONTINUOUS
10
-1.31187
20
-21.5273
11
-1.29884
21
-21.5204
0
LINE
8
BLACK
6
CONTINUOUS
10
-1.29884
20
-21.5204
11
-1.2847
21
-21.5161
0
LINE
8
BLACK
6
CONTINUOUS
10
-1.2847
20
-21.5161
11
-1.27367
21
-21.515
0
LINE
8
BLACK
6
CONTINUOUS
10
-1.27367
20
-21.515
11
-1.27
21
-21.5146
0
LINE
8
BLACK
6
CONTINUOUS
10
-1.27
20
-21.5146
11
-1.26632
21
-21.515
0
LINE
8
BLACK
6
CONTINUOUS
10
-1.26632
20
-21.515
11
1.83
21
-21.515
0
LINE
8
BLACK
6
CONTINUOUS
10
1.83
20
-21.515
11
1.83
21
-19.125
0
LINE
8
BLACK
6
CONTINUOUS
10
1.83
20
-19.125
11
-1.26632
21
-19.125
0
LINE
8
BLACK
6
CONTINUOUS
10
-1.26632
20
-19.125
11
-1.27
21
-19.1254
0
LINE
8
BLACK
6
CONTINUOUS
10
-1.27
20
-19.1254
11
-1.27367
21
-19.125
0
LINE
8
BLACK
6
CONTINUOUS
10
-1.27367
20
-19.125
11
-1.2847
21
-19.1239
0
LINE
8
BLACK
6
CONTINUOUS
10
-1.2847
20
-19.1239
11
-1.29884
21
-19.1196
0
LINE
8
BLACK
6
CONTINUOUS
10
-1.29884
20
-19.1196
11
-1.31187
21
-19.1127
0
LINE
8
BLACK
6
CONTINUOUS
10
-1.31187
20
-19.1127
11
-1.32329
21
-19.1033
0
LINE
8
BLACK
6
CONTINUOUS
10
-1.32329
20
-19.1033
11
-1.33266
21
-19.0919
0
LINE
8
BLACK
6
CONTINUOUS
10
-1.33266
20
-19.0919
11
-1.33962
21
-19.0788
0
LINE
8
BLACK
6
CONTINUOUS
10
-1.33962
20
-19.0788
11
-1.34391
21
-19.0647
0
LINE
8
BLACK
6
CONTINUOUS
10
-1.34391
20
-19.0647
11
-1.34536
21
-19.05
0
LINE
8
BLACK
6
CONTINUOUS
10
-1.34536
20
-19.05
11
-1.345
21
-19.0463
0
LINE
8
BLACK
6
CONTINUOUS
10
-1.345
20
-19.0463
11
-1.345
21
-1.90868
0
LINE
8
BLACK
6
CONTINUOUS
10
-1.345
20
-1.90868
11
-1.34536
21
-1.905
0
LINE
8
BLACK
6
CONTINUOUS
10
-1.34536
20
-1.905
11
-1.345
21
-1.90132
0
LINE
8
BLACK
6
CONTINUOUS
10
-1.345
20
-1.90132
11
-1.345
21
1.26632
0
LINE
8
BLACK
6
CONTINUOUS
10
-1.345
20
1.26632
11
-1.34536
21
1.27
0
LINE
8
BLACK
6
CONTINUOUS
10
-1.34536
20
1.27
11
-1.34391
21
1.2847
0
LINE
8
BLACK
6
CONTINUOUS
10
-1.34391
20
1.2847
11
-1.33962
21
1.29884
0
LINE
8
BLACK
6
CONTINUOUS
10
-1.33962
20
1.29884
11
-1.33266
21
1.31187
0
LINE
8
BLACK
6
CONTINUOUS
10
-1.33266
20
1.31187
11
-1.32329
21
1.32329
0
LINE
8
BLACK
6
CONTINUOUS
10
-1.32329
20
1.32329
11
-1.31187
21
1.33266
0
LINE
8
BLACK
6
CONTINUOUS
10
-1.31187
20
1.33266
11
-1.29884
21
1.33962
0
LINE
8
BLACK
6
CONTINUOUS
10
-1.29884
20
1.33962
11
-1.2847
21
1.34391
0
LINE
8
BLACK
6
CONTINUOUS
10
-1.2847
20
1.34391
11
-1.27367
21
1.345
0
LINE
8
BLACK
6
CONTINUOUS
10
-1.27367
20
1.345
11
-1.27
21
1.34536
0
LINE
8
BLACK
6
CONTINUOUS
10
-1.27
20
1.34536
11
-1.26632
21
1.345
0
LINE
8
BLACK
6
CONTINUOUS
10
-1.26632
20
1.345
11
1.90132
21
1.345
0
LINE
8
BLACK
6
CONTINUOUS
10
1.90132
20
1.345
11
1.905
21
1.34536
0
LINE
8
BLACK
6
CONTINUOUS
10
1.905
20
1.34536
11
1.90867
21
1.345
0
LINE
8
BLACK
6
CONTINUOUS
10
1.90867
20
1.345
11
19.0463
21
1.345
0
LINE
8
BLACK
6
CONTINUOUS
10
19.0463
20
1.345
11
19.05
21
1.34536
0
LINE
8
BLACK
6
CONTINUOUS
10
19.05
20
1.34536
11
19.0537
21
1.345
0
LINE
8
BLACK
6
CONTINUOUS
10
19.0537
20
1.345
11
19.0647
21
1.34391
0
LINE
8
BLACK
6
CONTINUOUS
10
19.0647
20
1.34391
11
19.0788
21
1.33962
0
LINE
8
BLACK
6
CONTINUOUS
10
19.0788
20
1.33962
11
19.0919
21
1.33266
0
LINE
8
BLACK
6
CONTINUOUS
10
19.0919
20
1.33266
11
19.1033
21
1.32329
0
LINE
8
BLACK
6
CONTINUOUS
10
19.1033
20
1.32329
11
19.1127
21
1.31187
0
LINE
8
BLACK
6
CONTINUOUS
10
19.1127
20
1.31187
11
19.1196
21
1.29884
0
LINE
8
BLACK
6
CONTINUOUS
10
19.1196
20
1.29884
11
19.1239
21
1.2847
0
LINE
8
BLACK
6
CONTINUOUS
10
19.1239
20
1.2847
11
19.1254
21
1.27
0
LINE
8
BLACK
6
CONTINUOUS
10
19.1254
20
1.27
11
19.125
21
1.26632
0
LINE
8
BLACK
6
CONTINUOUS
10
19.125
20
1.26632
11
19.125
21
-1.83
0
LINE
8
BLACK
6
CONTINUOUS
10
19.125
20
-1.83
11
21.515
21
-1.83
0
LINE
8
BLACK
6
CONTINUOUS
10
21.515
20
-1.83
11
21.515
21
1.26632
0
LINE
8
BLACK
6
CONTINUOUS
10
21.515
20
1.26632
11
21.5146
21
1.27
0
LINE
8
BLACK
6
CONTINUOUS
10
21.5146
20
1.27
11
21.5161
21
1.2847
0
LINE
8
BLACK
6
CONTINUOUS
10
21.5161
20
1.2847
11
21.5204
21
1.29884
0
LINE
8
BLACK
6
CONTINUOUS
10
21.5204
20
1.29884
11
21.5273
21
1.31187
0
LINE
8
BLACK
6
CONTINUOUS
10
21.5273
20
1.31187
11
21.5367
21
1.32329
0
LINE
8
BLACK
6
CONTINUOUS
10
21.5367
20
1.32329
11
21.5481
21
1.33266
0
LINE
8
BLACK
6
CONTINUOUS
10
21.5481
20
1.33266
11
21.5612
21
1.33962
0
LINE
8
BLACK
6
CONTINUOUS
10
21.5612
20
1.33962
11
21.5753
21
1.34391
0
LINE
8
BLACK
6
CONTINUOUS
10
21.5753
20
1.34391
11
21.5863
21
1.345
0
LINE
8
BLACK
6
CONTINUOUS
10
21.5863
20
1.345
11
21.59
21
1.34536
0
LINE
8
BLACK
6
CONTINUOUS
10
21.59
20
1.34536
11
21.5937
21
1.345
0
LINE
8
BLACK
6
CONTINUOUS
10
21.5937
20
1.345
11
38.7313
21
1.345
0
LINE
8
BLACK
6
CONTINUOUS
10
38.7313
20
1.345
11
38.735
21
1.34536
0
LINE
8
BLACK
6
CONTINUOUS
10
38.735
20
1.34536
11
38.7387
21
1.345
0
LINE
8
BLACK
6
CONTINUOUS
10
38.7387
20
1.345
11
41.9063
21
1.345
0
LINE
8
BLACK
6
CONTINUOUS
10
41.9063
20
1.345
11
41.91
21
1.34536
0
LINE
8
BLACK
6
CONTINUOUS
10
41.91
20
1.34536
11
41.9137
21
1.345
0
LINE
8
BLACK
6
CONTINUOUS
10
21.665
20
-38.81
11
21.665
21
-41.835
0
LINE
8
BLACK
6
CONTINUOUS
10
21.665
20
-41.835
11
38.66
21
-41.835
0
LINE
8
BLACK
6
CONTINUOUS
10
38.66
20
-41.835
11
38.66
21
-38.81
0
LINE
8
BLACK
6
CONTINUOUS
10
38.66
20
-38.81
11
21.665
21
-38.81
0
LINE
8
BLACK
6
CONTINUOUS
10
38.81
20
-38.81
11
38.81
21
-41.835
0
LINE
8
BLACK
6
CONTINUOUS
10
38.81
20
-41.835
11
41.835
21
-41.835
0
LINE
8
BLACK
6
CONTINUOUS
10
41.835
20
-41.835
11
41.835
21
-38.81
0
LINE
8
BLACK
6
CONTINUOUS
10
41.835
20
-38.81
11
38.81
21
-38.81
0
LINE
8
BLACK
6
CONTINUOUS
10
-1.195
20
-38.81
11
-1.195
21
-41.835
0
LINE
8
BLACK
6
CONTINUOUS
10
-1.195
20
-41.835
11
1.83
21
-41.835
0
LINE
8
BLACK
6
CONTINUOUS
10
1.83
20
-41.835
11
1.83
21
-38.81
0
LINE
8
BLACK
6
CONTINUOUS
10
1.83
20
-38.81
11
-1.195
21
-38.81
0
LINE
8
BLACK
6
CONTINUOUS
10
1.98
20
-38.81
11
1.98
21
-41.835
0
LINE
8
BLACK
6
CONTINUOUS
10
1.98
20
-41.835
11
18.975
21
-41.835
0
LINE
8
BLACK
6
CONTINUOUS
10
18.975
20
-41.835
11
18.975
21
-38.81
0
LINE
8
BLACK
6
CONTINUOUS
10
18.975
20
-38.81
11
1.98
21
-38.81
0
LINE
8
BLACK
6
CONTINUOUS
10
-1.195
20
-21.665
11
-1.195
21
-38.66
0
LINE
8
BLACK
6
CONTINUOUS
10
-1.195
20
-38.66
11
1.83
21
-38.66
0
LINE
8
BLACK
6
CONTINUOUS
10
1.83
20
-38.66
11
1.83
21
-21.665
0
LINE
8
BLACK
6
CONTINUOUS
10
1.83
20
-21.665
11
-1.195
21
-21.665
0
LINE
8
BLACK
6
CONTINUOUS
10
1.98
20
-21.665
11
1.98
21
-38.66
0
LINE
8
BLACK
6
CONTINUOUS
10
1.98
20
-38.66
11
18.975
21
-38.66
0
LINE
8
BLACK
6
CONTINUOUS
10
18.975
20
-38.66
11
18.975
21
-21.665
0
LINE
8
BLACK
6
CONTINUOUS
10
18.975
20
-21.665
11
1.98
21
-21.665
0
LINE
8
BLACK
6
CONTINUOUS
10
19.125
20
-1.98
11
19.125
21
-19.0463
0
LINE
8
BLACK
6
CONTINUOUS
10
19.125
20
-19.0463
11
19.1254
21
-19.05
0
LINE
8
BLACK
6
CONTINUOUS
10
19.1254
20
-19.05
11
19.1239
21
-19.0647
0
LINE
8
BLACK
6
CONTINUOUS
10
19.1239
20
-19.0647
11
19.1196
21
-19.0788
0
LINE
8
BLACK
6
CONTINUOUS
10
19.1196
20
-19.0788
11
19.1127
21
-19.0919
0
LINE
8
BLACK
6
CONTINUOUS
10
19.1127
20
-19.0919
11
19.1033
21
-19.1033
0
LINE
8
BLACK
6
CONTINUOUS
10
19.1033
20
-19.1033
11
19.0919
21
-19.1127
0
LINE
8
BLACK
6
CONTINUOUS
10
19.0919
20
-19.1127
11
19.0788
21
-19.1196
0
LINE
8
BLACK
6
CONTINUOUS
10
19.0788
20
-19.1196
11
19.0647
21
-19.1239
0
LINE
8
BLACK
6
CONTINUOUS
10
19.0647
20
-19.1239
11
19.0537
21
-19.125
0
LINE
8
BLACK
6
CONTINUOUS
10
19.0537
20
-19.125
11
19.05
21
-19.1254
0
LINE
8
BLACK
6
CONTINUOUS
10
19.05
20
-19.1254
11
19.0463
21
-19.125
0
LINE
8
BLACK
6
CONTINUOUS
10
19.0463
20
-19.125
11
1.98
21
-19.125
0
LINE
8
BLACK
6
CONTINUOUS
10
1.98
20
-19.125
11
1.98
21
-21.515
0
LINE
8
BLACK
6
CONTINUOUS
10
1.98
20
-21.515
11
19.0463
21
-21.515
0
LINE
8
BLACK
6
CONTINUOUS
10
19.0463
20
-21.515
11
19.05
21
-21.5146
0
LINE
8
BLACK
6
CONTINUOUS
10
19.05
20
-21.5146
11
19.0537
21
-21.515
0
LINE
8
BLACK
6
CONTINUOUS
10
19.0537
20
-21.515
11
19.0647
21
-21.5161
0
LINE
8
BLACK
6
CONTINUOUS
10
19.0647
20
-21.5161
11
19.0788
21
-21.5204
0
LINE
8
BLACK
6
CONTINUOUS
10
19.0788
20
-21.5204
11
19.0919
21
-21.5273
0
LINE
8
BLACK
6
CONTINUOUS
10
19.0919
20
-21.5273
11
19.1033
21
-21.5367
0
LINE
8
BLACK
6
CONTINUOUS
10
19.1033
20
-21.5367
11
19.1127
21
-21.5481
0
LINE
8
BLACK
6
CONTINUOUS
10
19.1127
20
-21.5481
11
19.1196
21
-21.5612
0
LINE
8
BLACK
6
CONTINUOUS
10
19.1196
20
-21.5612
11
19.1239
21
-21.5753
0
LINE
8
BLACK
6
CONTINUOUS
10
19.1239
20
-21.5753
11
19.1254
21
-21.59
0
LINE
8
BLACK
6
CONTINUOUS
10
19.1254
20
-21.59
11
19.125
21
-21.5937
0
LINE
8
BLACK
6
CONTINUOUS
10
19.125
20
-21.5937
11
19.125
21
-38.66
0
LINE
8
BLACK
6
CONTINUOUS
10
19.125
20
-38.66
11
21.515
21
-38.66
0
LINE
8
BLACK
6
CONTINUOUS
10
21.515
20
-38.66
11
21.515
21
-21.5937
0
LINE
8
BLACK
6
CONTINUOUS
10
21.515
20
-21.5937
11
21.5146
21
-21.59
0
LINE
8
BLACK
6
CONTINUOUS
10
21.5146
20
-21.59
11
21.5161
21
-21.5753
0
LINE
8
BLACK
6
CONTINUOUS
10
21.5161
20
-21.5753
11
21.5204
21
-21.5612
0
LINE
8
BLACK
6
CONTINUOUS
10
21.5204
20
-21.5612
11
21.5273
21
-21.5481
0
LINE
8
BLACK
6
CONTINUOUS
10
21.5273
20
-21.5481
11
21.5367
21
-21.5367
0
LINE
8
BLACK
6
CONTINUOUS
10
21.5367
20
-21.5367
11
21.5481
21
-21.5273
0
LINE
8
BLACK
6
CONTINUOUS
10
21.5481
20
-21.5273
11
21.5612
21
-21.5204
0
LINE
8
BLACK
6
CONTINUOUS
10
21.5612
20
-21.5204
11
21.5753
21
-21.5161
0
LINE
8
BLACK
6
CONTINUOUS
10
21.5753
20
-21.5161
11
21.5863
21
-21.515
0
LINE
8
BLACK
6
CONTINUOUS
10
21.5863
20
-21.515
11
21.59
21
-21.5146
0
LINE
8
BLACK
6
CONTINUOUS
10
21.59
20
-21.5146
11
21.5937
21
-21.515
0
LINE
8
BLACK
6
CONTINUOUS
10
21.5937
20
-21.515
11
38.66
21
-21.515
0
LINE
8
BLACK
6
CONTINUOUS
10
38.66
20
-21.515
11
38.66
21
-19.125
0
LINE
8
BLACK
6
CONTINUOUS
10
38.66
20
-19.125
11
21.5937
21
-19.125
0
LINE
8
BLACK
6
CONTINUOUS
10
21.5937
20
-19.125
11
21.59
21
-19.1254
0
LINE
8
BLACK
6
CONTINUOUS
10
21.59
20
-19.1254
11
21.5863
21
-19.125
0
LINE
8
BLACK
6
CONTINUOUS
10
21.5863
20
-19.125
11
21.5753
21
-19.1239
0
LINE
8
BLACK
6
CONTINUOUS
10
21.5753
20
-19.1239
11
21.5612
21
-19.1196
0
LINE
8
BLACK
6
CONTINUOUS
10
21.5612
20
-19.1196
11
21.5481
21
-19.1127
0
LINE
8
BLACK
6
CONTINUOUS
10
21.5481
20
-19.1127
11
21.5367
21
-19.1033
0
LINE
8
BLACK
6
CONTINUOUS
10
21.5367
20
-19.1033
11
21.5273
21
-19.0919
0
LINE
8
BLACK
6
CONTINUOUS
10
21.5273
20
-19.0919
11
21.5204
21
-19.0788
0
LINE
8
BLACK
6
CONTINUOUS
10
21.5204
20
-19.0788
11
21.5161
21
-19.0647
0
LINE
8
BLACK
6
CONTINUOUS
10
21.5161
20
-19.0647
11
21.5146
21
-19.05
0
LINE
8
BLACK
6
CONTINUOUS
10
21.5146
20
-19.05
11
21.515
21
-19.0463
0
LINE
8
BLACK
6
CONTINUOUS
10
21.515
20
-19.0463
11
21.515
21
-1.98
0
LINE
8
BLACK
6
CONTINUOUS
10
21.515
20
-1.98
11
19.125
21
-1.98
0
LINE
8
BLACK
6
CONTINUOUS
10
21.665
20
-21.665
11
21.665
21
-38.66
0
LINE
8
BLACK
6
CONTINUOUS
10
21.665
20
-38.66
11
38.66
21
-38.66
0
LINE
8
BLACK
6
CONTINUOUS
10
38.66
20
-38.66
11
38.66
21
-21.665
0
LINE
8
BLACK
6
CONTINUOUS
10
38.66
20
-21.665
11
21.665
21
-21.665
0
LINE
8
BLACK
6
CONTINUOUS
10
38.81
20
-21.665
11
38.81
21
-38.66
0
LINE
8
BLACK
6
CONTINUOUS
10
38.81
20
-38.66
11
41.835
21
-38.66
0
LINE
8
BLACK
6
CONTINUOUS
10
41.835
20
-38.66
11
41.835
21
-21.665
0
LINE
8
BLACK
6
CONTINUOUS
10
41.835
20
-21.665
11
38.81
21
-21.665
0
LINE
8
BLACK
6
CONTINUOUS
10
21.665
20
-1.98
11
21.665
21
-18.975
0
LINE
8
BLACK
6
CONTINUOUS
10
21.665
20
-18.975
11
38.66
21
-18.975
0
LINE
8
BLACK
6
CONTINUOUS
10
38.66
20
-18.975
11
38.66
21
-1.98
0
LINE
8
BLACK
6
CONTINUOUS
10
38.66
20
-1.98
11
21.665
21
-1.98
0
LINE
8
BLACK
6
CONTINUOUS
10
38.81
20
-1.98
11
38.81
21
-18.975
0
LINE
8
BLACK
6
CONTINUOUS
10
38.81
20
-18.975
11
41.835
21
-18.975
0
LINE
8
BLACK
6
CONTINUOUS
10
41.835
20
-18.975
11
41.835
21
-1.98
0
LINE
8
BLACK
6
CONTINUOUS
10
41.835
20
-1.98
11
38.81
21
-1.98
0
LINE
8
BLACK
6
CONTINUOUS
10
-1.195
20
-1.98
11
-1.195
21
-18.975
0
LINE
8
BLACK
6
CONTINUOUS
10
-1.195
20
-18.975
11
1.83
21
-18.975
0
LINE
8
BLACK
6
CONTINUOUS
10
1.83
20
-18.975
11
1.83
21
-1.98
0
LINE
8
BLACK
6
CONTINUOUS
10
1.83
20
-1.98
11
-1.195
21
-1.98
0
LINE
8
BLACK
6
CONTINUOUS
10
1.98
20
-1.98
11
1.98
21
-18.975
0
LINE
8
BLACK
6
CONTINUOUS
10
1.98
20
-18.975
11
18.975
21
-18.975
0
LINE
8
BLACK
6
CONTINUOUS
10
18.975
20
-18.975
11
18.975
21
-1.98
0
LINE
8
BLACK
6
CONTINUOUS
10
18.975
20
-1.98
11
1.98
21
-1.98
0
LINE
8
BLACK
6
CONTINUOUS
10
-1.195
20
1.195
11
-1.195
21
-1.83
0
LINE
8
BLACK
6
CONTINUOUS
10
-1.195
20
-1.83
11
1.83
21
-1.83
0
LINE
8
BLACK
6
CONTINUOUS
10
1.83
20
-1.83
11
1.83
21
1.195
0
LINE
8
BLACK
6
CONTINUOUS
10
1.83
20
1.195
11
-1.195
21
1.195
0
LINE
8
BLACK
6
CONTINUOUS
10
1.98
20
1.195
11
1.98
21
-1.83
0
LINE
8
BLACK
6
CONTINUOUS
10
1.98
20
-1.83
11
18.975
21
-1.83
0
LINE
8
BLACK
6
CONTINUOUS
10
18.975
20
-1.83
11
18.975
21
1.195
0
LINE
8
BLACK
6
CONTINUOUS
10
18.975
20
1.195
11
1.98
21
1.195
0
LINE
8
BLACK
6
CONTINUOUS
10
21.665
20
1.195
11
21.665
21
-1.83
0
LINE
8
BLACK
6
CONTINUOUS
10
21.665
20
-1.83
11
38.66
21
-1.83
0
LINE
8
BLACK
6
CONTINUOUS
10
38.66
20
-1.83
11
38.66
21
1.195
0
LINE
8
BLACK
6
CONTINUOUS
10
38.66
20
1.195
11
21.665
21
1.195
0
LINE
8
BLACK
6
CONTINUOUS
10
38.81
20
1.195
11
38.81
21
-1.83
0
LINE
8
BLACK
6
CONTINUOUS
10
38.81
20
-1.83
11
41.835
21
-1.83
0
LINE
8
BLACK
6
CONTINUOUS
10
41.835
20
-1.83
11
41.835
21
1.195
0
LINE
8
BLACK
6
CONTINUOUS
10
41.835
20
1.195
11
38.81
21
1.195
  0
ENDSEC
  0
EOF
