M48
; DRILL file {KiCad (6.0.7)} date Fri Sep 30 15:50:11 2022
; FORMAT={-:-/ absolute / inch / decimal}
; #@! TF.CreationDate,2022-09-30T15:50:11-07:00
; #@! TF.GenerationSoftware,Kicad,Pcbnew,(6.0.7)
; #@! TF.FileFunction,MixedPlating,1,2
FMAT,2
INCH
; #@! TA.AperFunction,Plated,PTH,ViaDrill
T1C0.0157
; #@! TA.AperFunction,Plated,PTH,ViaDrill
T2C0.0236
; #@! TA.AperFunction,Plated,PTH,ViaDrill
T3C0.0295
; #@! TA.AperFunction,Plated,PTH,ViaDrill
T4C0.0354
; #@! TA.AperFunction,Plated,PTH,ComponentDrill
T5C0.0394
; #@! TA.AperFunction,Plated,PTH,ComponentDrill
T6C0.1693
%
G90
G05
T1
X0.6496Y-0.689
X0.748Y-0.8858
X0.8435Y-1.1978
X1.0169Y-1.1154
X1.0207Y-0.9616
X1.0404Y-1.0404
T2
X0.312Y-0.0758
X0.6467Y-0.2589
T3
X0.1181Y-1.0827
X0.761Y-1.1154
X1.0433Y-1.2992
X1.1585Y-0.2333
X1.3159Y-0.4498
T4
X0.1969Y-0.9646
X0.5906Y-0.8858
X0.8041Y-0.1742
X1.2008Y-0.4134
T5
X0.086Y-0.586
X0.086Y-0.786
X0.186Y-0.586
X0.186Y-0.786
X0.286Y-0.586
X0.286Y-0.786
X0.386Y-0.586
X0.386Y-0.786
X0.486Y-0.586
X0.486Y-0.786
X0.586Y-0.586
X0.586Y-0.786
X0.786Y-0.586
X0.786Y-0.786
X0.886Y-0.586
X0.886Y-0.786
X0.986Y-0.586
X0.986Y-0.786
X1.086Y-0.586
X1.086Y-0.786
X1.186Y-0.586
X1.186Y-0.786
X1.286Y-0.586
X1.286Y-0.786
T6
X0.4104Y-1.001
X0.9616Y-0.3711
T0
M30
