%TF.GenerationSoftware,KiCad,Pcbnew,(6.0.7)*%
%TF.CreationDate,2022-09-30T15:50:05-07:00*%
%TF.ProjectId,companion,636f6d70-616e-4696-9f6e-2e6b69636164,rev?*%
%TF.SameCoordinates,Original*%
%TF.FileFunction,Soldermask,Top*%
%TF.FilePolarity,Negative*%
%FSLAX46Y46*%
G04 Gerber Fmt 4.6, Leading zero omitted, Abs format (unit mm)*
G04 Created by KiCad (PCBNEW (6.0.7)) date 2022-09-30 15:50:05*
%MOMM*%
%LPD*%
G01*
G04 APERTURE LIST*
G04 Aperture macros list*
%AMRoundRect*
0 Rectangle with rounded corners*
0 $1 Rounding radius*
0 $2 $3 $4 $5 $6 $7 $8 $9 X,Y pos of 4 corners*
0 Add a 4 corners polygon primitive as box body*
4,1,4,$2,$3,$4,$5,$6,$7,$8,$9,$2,$3,0*
0 Add four circle primitives for the rounded corners*
1,1,$1+$1,$2,$3*
1,1,$1+$1,$4,$5*
1,1,$1+$1,$6,$7*
1,1,$1+$1,$8,$9*
0 Add four rect primitives between the rounded corners*
20,1,$1+$1,$2,$3,$4,$5,0*
20,1,$1+$1,$4,$5,$6,$7,0*
20,1,$1+$1,$6,$7,$8,$9,0*
20,1,$1+$1,$8,$9,$2,$3,0*%
G04 Aperture macros list end*
%ADD10RoundRect,0.050000X-0.850000X-0.325000X0.850000X-0.325000X0.850000X0.325000X-0.850000X0.325000X0*%
%ADD11RoundRect,0.050000X-0.500000X1.255000X-0.500000X-1.255000X0.500000X-1.255000X0.500000X1.255000X0*%
%ADD12RoundRect,0.050000X-0.176777X-0.883883X0.883883X0.176777X0.176777X0.883883X-0.883883X-0.176777X0*%
%ADD13RoundRect,0.050000X-0.883883X0.176777X0.176777X-0.883883X0.883883X-0.176777X-0.176777X0.883883X0*%
%ADD14RoundRect,0.050000X0.176777X0.883883X-0.883883X-0.176777X-0.176777X-0.883883X0.883883X0.176777X0*%
%ADD15RoundRect,0.050000X0.883883X-0.176777X-0.176777X0.883883X-0.883883X0.176777X0.176777X-0.883883X0*%
%ADD16C,4.800000*%
%ADD17C,7.100000*%
%ADD18RoundRect,0.050000X-0.850000X0.850000X-0.850000X-0.850000X0.850000X-0.850000X0.850000X0.850000X0*%
%ADD19O,1.800000X1.800000*%
%ADD20RoundRect,0.300000X0.750000X-0.250000X0.750000X0.250000X-0.750000X0.250000X-0.750000X-0.250000X0*%
G04 APERTURE END LIST*
D10*
%TO.C,U1*%
X24075000Y-24520000D03*
X24075000Y-25790000D03*
X24075000Y-27060000D03*
X24075000Y-28330000D03*
X16775000Y-28330000D03*
X16775000Y-27060000D03*
X16775000Y-25790000D03*
X16775000Y-24520000D03*
%TD*%
D11*
%TO.C,J5*%
X18965000Y-8470000D03*
X16425000Y-11780000D03*
X13885000Y-8470000D03*
%TD*%
D12*
%TO.C,D2*%
X26811218Y-30276041D03*
X29073959Y-32538782D03*
X32538782Y-29073959D03*
X30276041Y-26811218D03*
%TD*%
D13*
%TO.C,D1*%
X4573959Y-26811218D03*
X2311218Y-29073959D03*
X5776041Y-32538782D03*
X8038782Y-30276041D03*
%TD*%
D14*
%TO.C,D4*%
X8038782Y-4573959D03*
X5776041Y-2311218D03*
X2311218Y-5776041D03*
X4573959Y-8038782D03*
%TD*%
D15*
%TO.C,D3*%
X26811218Y-4573959D03*
X29073959Y-2311218D03*
X32538782Y-5776041D03*
X30276041Y-8038782D03*
%TD*%
D16*
%TO.C,H1*%
X10425000Y-25425000D03*
D17*
X10425000Y-25425000D03*
%TD*%
%TO.C,H2*%
X24425000Y-9425000D03*
D16*
X24425000Y-9425000D03*
%TD*%
D18*
%TO.C,J1*%
X2185000Y-14885000D03*
D19*
X4725000Y-14885000D03*
X7265000Y-14885000D03*
X9805000Y-14885000D03*
X12345000Y-14885000D03*
X14885000Y-14885000D03*
%TD*%
%TO.C,J2*%
X14885000Y-19965000D03*
X12345000Y-19965000D03*
X9805000Y-19965000D03*
X7265000Y-19965000D03*
X4725000Y-19965000D03*
D18*
X2185000Y-19965000D03*
%TD*%
D19*
%TO.C,J3*%
X32665000Y-14885000D03*
X30125000Y-14885000D03*
X27585000Y-14885000D03*
X25045000Y-14885000D03*
X22505000Y-14885000D03*
D18*
X19965000Y-14885000D03*
%TD*%
D19*
%TO.C,J4*%
X32665000Y-19965000D03*
X30125000Y-19965000D03*
X27585000Y-19965000D03*
X25045000Y-19965000D03*
X22505000Y-19965000D03*
D18*
X19965000Y-19965000D03*
%TD*%
D20*
%TO.C,J6*%
X8425000Y-11925000D03*
%TD*%
M02*
