%TF.GenerationSoftware,KiCad,Pcbnew,(6.0.7)*%
%TF.CreationDate,2022-09-30T15:53:46-07:00*%
%TF.ProjectId,companion,636f6d70-616e-4696-9f6e-2e6b69636164,rev?*%
%TF.SameCoordinates,Original*%
%TF.FileFunction,Copper,L1,Top*%
%TF.FilePolarity,Positive*%
%FSLAX46Y46*%
G04 Gerber Fmt 4.6, Leading zero omitted, Abs format (unit mm)*
G04 Created by KiCad (PCBNEW (6.0.7)) date 2022-09-30 15:53:46*
%MOMM*%
%LPD*%
G01*
G04 APERTURE LIST*
%TA.AperFunction,ConnectorPad*%
%ADD10C,7.000000*%
%TD*%
%TA.AperFunction,ComponentPad*%
%ADD11C,4.700000*%
%TD*%
%TA.AperFunction,SMDPad,CuDef*%
%ADD12R,1.500000X1.000000*%
%TD*%
%TA.AperFunction,SMDPad,CuDef*%
%ADD13R,1.000000X1.500000*%
%TD*%
%TA.AperFunction,ViaPad*%
%ADD14C,1.800000*%
%TD*%
%TA.AperFunction,Conductor*%
%ADD15C,0.800000*%
%TD*%
G04 APERTURE END LIST*
D10*
%TO.P,H2,1,1*%
%TO.N,b*%
X24425000Y-9425000D03*
D11*
X24425000Y-9425000D03*
%TD*%
D12*
%TO.P,D3,1,VDD*%
%TO.N,5v*%
X14975000Y-28825000D03*
%TO.P,D3,2,DOUT*%
%TO.N,Net-(D3-Pad2)*%
X14975000Y-32025000D03*
%TO.P,D3,3,VSS*%
%TO.N,gnd*%
X19875000Y-32025000D03*
%TO.P,D3,4,DIN*%
%TO.N,Net-(D2-Pad2)*%
X19875000Y-28825000D03*
%TD*%
D13*
%TO.P,D4,1,VDD*%
%TO.N,5v*%
X6025000Y-14975000D03*
%TO.P,D4,2,DOUT*%
%TO.N,Net-(D4-Pad2)*%
X2825000Y-14975000D03*
%TO.P,D4,3,VSS*%
%TO.N,gnd*%
X2825000Y-19875000D03*
%TO.P,D4,4,DIN*%
%TO.N,Net-(D3-Pad2)*%
X6025000Y-19875000D03*
%TD*%
D12*
%TO.P,D1,1,VDD*%
%TO.N,5v*%
X19875000Y-6025000D03*
%TO.P,D1,2,DOUT*%
%TO.N,Net-(D1-Pad2)*%
X19875000Y-2825000D03*
%TO.P,D1,3,VSS*%
%TO.N,gnd*%
X14975000Y-2825000D03*
%TO.P,D1,4,DIN*%
%TO.N,Net-(D1-Pad4)*%
X14975000Y-6025000D03*
%TD*%
D10*
%TO.P,H1,1,1*%
%TO.N,a*%
X10425000Y-25425000D03*
D11*
X10425000Y-25425000D03*
%TD*%
D13*
%TO.P,D2,1,VDD*%
%TO.N,5v*%
X28825000Y-19875000D03*
%TO.P,D2,2,DOUT*%
%TO.N,Net-(D2-Pad2)*%
X32025000Y-19875000D03*
%TO.P,D2,3,VSS*%
%TO.N,gnd*%
X32025000Y-14975000D03*
%TO.P,D2,4,DIN*%
%TO.N,Net-(D1-Pad2)*%
X28825000Y-14975000D03*
%TD*%
D14*
%TO.N,Net-(D4-Pad2)*%
X1425000Y-8425000D03*
%TO.N,5v*%
X19900000Y-12200000D03*
%TO.N,gnd*%
X12425000Y-7425000D03*
%TO.N,Net-(D1-Pad4)*%
X17425000Y-10425000D03*
%TD*%
D15*
%TO.N,Net-(D1-Pad2)*%
X28825000Y-8026724D02*
X28825000Y-14975000D01*
X19875000Y-2825000D02*
X23623276Y-2825000D01*
X23623276Y-2825000D02*
X28825000Y-8026724D01*
%TO.N,Net-(D2-Pad2)*%
X19875000Y-28825000D02*
X23075000Y-28825000D01*
X23075000Y-28825000D02*
X32025000Y-19875000D01*
%TO.N,Net-(D3-Pad2)*%
X14975000Y-32025000D02*
X11226724Y-32025000D01*
X11226724Y-32025000D02*
X6025000Y-26823276D01*
X6025000Y-26823276D02*
X6025000Y-19875000D01*
%TO.N,Net-(D4-Pad2)*%
X2825000Y-14975000D02*
X2825000Y-9825000D01*
X2825000Y-9825000D02*
X1425000Y-8425000D01*
%TO.N,5v*%
X19875000Y-12175000D02*
X19900000Y-12200000D01*
X17125000Y-14975000D02*
X19900000Y-12200000D01*
X6025000Y-14975000D02*
X17125000Y-14975000D01*
X6025000Y-14975000D02*
X14975000Y-23925000D01*
X19875000Y-6025000D02*
X19875000Y-12175000D01*
X14975000Y-23925000D02*
X14975000Y-28825000D01*
X28825000Y-19875000D02*
X27575000Y-19875000D01*
X27575000Y-19875000D02*
X19900000Y-12200000D01*
X14975000Y-28825000D02*
X23925000Y-19875000D01*
X23925000Y-19875000D02*
X28825000Y-19875000D01*
%TO.N,gnd*%
X24025000Y-1725000D02*
X32025000Y-9725000D01*
X16075000Y-1725000D02*
X24025000Y-1725000D01*
X32025000Y-9725000D02*
X32025000Y-14975000D01*
X12425000Y-5375000D02*
X12425000Y-7425000D01*
X2825000Y-25125000D02*
X2825000Y-19875000D01*
X19875000Y-32025000D02*
X22825000Y-32025000D01*
X22825000Y-32025000D02*
X33125000Y-21725000D01*
X14975000Y-2825000D02*
X12425000Y-5375000D01*
X33125000Y-16075000D02*
X32025000Y-14975000D01*
X33125000Y-21725000D02*
X33125000Y-16075000D01*
X19875000Y-32025000D02*
X18775000Y-33125000D01*
X10825000Y-33125000D02*
X2825000Y-25125000D01*
X18775000Y-33125000D02*
X10825000Y-33125000D01*
X14975000Y-2825000D02*
X16075000Y-1725000D01*
%TO.N,Net-(D1-Pad4)*%
X14975000Y-6025000D02*
X14975000Y-7975000D01*
X14975000Y-7975000D02*
X17425000Y-10425000D01*
%TD*%
%TA.AperFunction,NonConductor*%
G36*
X13731374Y-5419508D02*
G01*
X13793998Y-5482132D01*
X13823249Y-5565725D01*
X13824500Y-5588006D01*
X13824501Y-6525193D01*
X13804794Y-6611536D01*
X13749576Y-6680777D01*
X13669783Y-6719204D01*
X13581220Y-6719204D01*
X13501427Y-6680778D01*
X13462489Y-6639334D01*
X13430031Y-6592978D01*
X13430027Y-6592973D01*
X13425047Y-6585861D01*
X13283786Y-6444600D01*
X13236667Y-6369612D01*
X13225500Y-6303886D01*
X13225500Y-5789006D01*
X13245207Y-5702663D01*
X13283786Y-5648292D01*
X13484786Y-5447292D01*
X13559774Y-5400173D01*
X13647781Y-5390257D01*
X13731374Y-5419508D01*
G37*
%TD.AperFunction*%
%TA.AperFunction,NonConductor*%
G36*
X18611843Y-2545207D02*
G01*
X18681084Y-2600426D01*
X18719511Y-2680218D01*
X18724500Y-2724500D01*
X18724501Y-3356518D01*
X18725723Y-3364231D01*
X18725723Y-3364237D01*
X18736903Y-3434831D01*
X18736904Y-3434834D01*
X18739354Y-3450304D01*
X18796950Y-3563342D01*
X18886658Y-3653050D01*
X18999696Y-3710646D01*
X19093481Y-3725500D01*
X19101305Y-3725500D01*
X19875549Y-3725499D01*
X20656518Y-3725499D01*
X20664231Y-3724277D01*
X20664237Y-3724277D01*
X20734831Y-3713097D01*
X20734834Y-3713096D01*
X20750304Y-3710646D01*
X20764260Y-3703535D01*
X20764263Y-3703534D01*
X20863342Y-3653050D01*
X20864397Y-3655122D01*
X20926224Y-3628697D01*
X20961752Y-3625500D01*
X23209270Y-3625500D01*
X23295613Y-3645207D01*
X23349984Y-3683786D01*
X24859500Y-5193302D01*
X24906619Y-5268290D01*
X24916535Y-5356297D01*
X24887284Y-5439890D01*
X24824660Y-5502514D01*
X24741067Y-5531765D01*
X24698331Y-5531962D01*
X24634404Y-5525356D01*
X24634400Y-5525356D01*
X24629399Y-5524839D01*
X24624376Y-5524830D01*
X24624371Y-5524830D01*
X24431087Y-5524493D01*
X24234217Y-5524150D01*
X23840988Y-5563399D01*
X23836044Y-5564405D01*
X23836043Y-5564405D01*
X23458681Y-5641180D01*
X23458675Y-5641182D01*
X23453738Y-5642186D01*
X23448923Y-5643686D01*
X23448918Y-5643687D01*
X23081242Y-5758205D01*
X23081239Y-5758206D01*
X23076433Y-5759703D01*
X22712936Y-5914748D01*
X22708523Y-5917184D01*
X22708517Y-5917187D01*
X22371385Y-6103294D01*
X22366967Y-6105733D01*
X22362831Y-6108597D01*
X22362826Y-6108600D01*
X22129274Y-6270319D01*
X22042070Y-6330702D01*
X22038245Y-6333969D01*
X21768625Y-6564247D01*
X21741571Y-6587353D01*
X21738089Y-6590997D01*
X21480873Y-6860158D01*
X21468546Y-6873057D01*
X21465458Y-6877023D01*
X21465456Y-6877026D01*
X21430061Y-6922493D01*
X21225791Y-7184890D01*
X21043077Y-7476161D01*
X20980500Y-7538831D01*
X20896929Y-7568144D01*
X20808915Y-7558294D01*
X20733891Y-7511231D01*
X20686716Y-7436278D01*
X20675500Y-7370412D01*
X20675500Y-7070707D01*
X20695207Y-6984364D01*
X20750426Y-6915123D01*
X20784145Y-6893403D01*
X20863342Y-6853050D01*
X20953050Y-6763342D01*
X21010646Y-6650304D01*
X21025500Y-6556519D01*
X21025499Y-5493482D01*
X21024275Y-5485753D01*
X21013097Y-5415169D01*
X21013096Y-5415166D01*
X21010646Y-5399696D01*
X20990875Y-5360892D01*
X20960160Y-5300612D01*
X20953050Y-5286658D01*
X20863342Y-5196950D01*
X20820495Y-5175118D01*
X20764260Y-5146465D01*
X20750304Y-5139354D01*
X20656519Y-5124500D01*
X20648695Y-5124500D01*
X19874451Y-5124501D01*
X19093482Y-5124501D01*
X19085769Y-5125723D01*
X19085763Y-5125723D01*
X19015169Y-5136903D01*
X19015166Y-5136904D01*
X18999696Y-5139354D01*
X18985740Y-5146465D01*
X18985737Y-5146466D01*
X18908977Y-5185578D01*
X18886658Y-5196950D01*
X18796950Y-5286658D01*
X18739354Y-5399696D01*
X18724500Y-5493481D01*
X18724501Y-6556518D01*
X18725723Y-6564231D01*
X18725723Y-6564237D01*
X18736903Y-6634831D01*
X18736904Y-6634834D01*
X18739354Y-6650304D01*
X18746465Y-6664260D01*
X18746466Y-6664263D01*
X18754881Y-6680778D01*
X18796950Y-6763342D01*
X18886658Y-6853050D01*
X18965849Y-6893400D01*
X19033829Y-6950154D01*
X19070455Y-7030789D01*
X19074500Y-7070707D01*
X19074500Y-10044716D01*
X19054793Y-10131059D01*
X18999574Y-10200300D01*
X18919782Y-10238727D01*
X18831218Y-10238727D01*
X18751426Y-10200300D01*
X18696207Y-10131059D01*
X18683281Y-10096221D01*
X18653989Y-9986901D01*
X18651739Y-9978504D01*
X18555568Y-9772266D01*
X18528376Y-9733431D01*
X18430031Y-9592978D01*
X18430027Y-9592973D01*
X18425047Y-9585861D01*
X18264139Y-9424953D01*
X18257027Y-9419973D01*
X18257022Y-9419969D01*
X18084852Y-9299416D01*
X18077734Y-9294432D01*
X17871496Y-9198261D01*
X17851918Y-9193015D01*
X17660084Y-9141613D01*
X17660077Y-9141612D01*
X17651692Y-9139365D01*
X17643041Y-9138608D01*
X17643040Y-9138608D01*
X17433653Y-9120289D01*
X17425000Y-9119532D01*
X17358000Y-9125394D01*
X17270270Y-9113287D01*
X17199943Y-9067865D01*
X15833786Y-7701708D01*
X15786667Y-7626720D01*
X15775500Y-7560994D01*
X15775500Y-7070707D01*
X15795207Y-6984364D01*
X15850426Y-6915123D01*
X15884145Y-6893403D01*
X15963342Y-6853050D01*
X16053050Y-6763342D01*
X16110646Y-6650304D01*
X16125500Y-6556519D01*
X16125499Y-5493482D01*
X16124275Y-5485753D01*
X16113097Y-5415169D01*
X16113096Y-5415166D01*
X16110646Y-5399696D01*
X16090875Y-5360892D01*
X16060160Y-5300612D01*
X16053050Y-5286658D01*
X15963342Y-5196950D01*
X15920495Y-5175118D01*
X15864260Y-5146465D01*
X15850304Y-5139354D01*
X15756519Y-5124500D01*
X15637031Y-5124500D01*
X14288005Y-5124501D01*
X14201662Y-5104794D01*
X14132421Y-5049576D01*
X14093994Y-4969783D01*
X14093994Y-4881219D01*
X14132420Y-4801427D01*
X14147291Y-4784787D01*
X15148293Y-3783785D01*
X15223281Y-3736666D01*
X15289007Y-3725499D01*
X15756518Y-3725499D01*
X15764231Y-3724277D01*
X15764237Y-3724277D01*
X15834831Y-3713097D01*
X15834834Y-3713096D01*
X15850304Y-3710646D01*
X15864260Y-3703535D01*
X15864263Y-3703534D01*
X15949388Y-3660160D01*
X15963342Y-3653050D01*
X16053050Y-3563342D01*
X16110646Y-3450304D01*
X16125500Y-3356519D01*
X16125499Y-2889006D01*
X16145206Y-2802665D01*
X16183785Y-2748293D01*
X16348292Y-2583786D01*
X16423280Y-2536667D01*
X16489006Y-2525500D01*
X18525500Y-2525500D01*
X18611843Y-2545207D01*
G37*
%TD.AperFunction*%
%TA.AperFunction,NonConductor*%
G36*
X29948574Y-8782422D02*
G01*
X29965214Y-8797292D01*
X31166214Y-9998292D01*
X31213333Y-10073280D01*
X31224500Y-10139006D01*
X31224500Y-13888248D01*
X31204793Y-13974591D01*
X31198524Y-13985084D01*
X31196950Y-13986658D01*
X31139354Y-14099696D01*
X31124500Y-14193481D01*
X31124501Y-15756518D01*
X31125723Y-15764231D01*
X31125723Y-15764237D01*
X31136903Y-15834831D01*
X31136904Y-15834834D01*
X31139354Y-15850304D01*
X31146465Y-15864260D01*
X31146466Y-15864263D01*
X31182738Y-15935449D01*
X31196950Y-15963342D01*
X31286658Y-16053050D01*
X31399696Y-16110646D01*
X31493481Y-16125500D01*
X31541156Y-16125500D01*
X31960994Y-16125499D01*
X32047335Y-16145206D01*
X32101707Y-16183785D01*
X32266214Y-16348292D01*
X32313333Y-16423280D01*
X32324500Y-16489006D01*
X32324500Y-18525500D01*
X32304793Y-18611843D01*
X32249574Y-18681084D01*
X32169782Y-18719511D01*
X32125500Y-18724500D01*
X31524876Y-18724501D01*
X31493482Y-18724501D01*
X31485769Y-18725723D01*
X31485763Y-18725723D01*
X31415169Y-18736903D01*
X31415166Y-18736904D01*
X31399696Y-18739354D01*
X31385740Y-18746465D01*
X31385737Y-18746466D01*
X31300612Y-18789840D01*
X31286658Y-18796950D01*
X31196950Y-18886658D01*
X31139354Y-18999696D01*
X31124500Y-19093481D01*
X31124500Y-19560994D01*
X31104793Y-19647337D01*
X31066214Y-19701708D01*
X30065214Y-20702708D01*
X29990226Y-20749827D01*
X29902219Y-20759743D01*
X29818626Y-20730492D01*
X29756002Y-20667868D01*
X29726751Y-20584275D01*
X29725500Y-20561994D01*
X29725499Y-19101295D01*
X29725499Y-19093482D01*
X29723992Y-19083965D01*
X29713097Y-19015169D01*
X29713096Y-19015166D01*
X29710646Y-18999696D01*
X29701311Y-18981374D01*
X29660160Y-18900612D01*
X29653050Y-18886658D01*
X29563342Y-18796950D01*
X29450304Y-18739354D01*
X29356519Y-18724500D01*
X29348695Y-18724500D01*
X28824627Y-18724501D01*
X28293482Y-18724501D01*
X28285769Y-18725723D01*
X28285763Y-18725723D01*
X28215169Y-18736903D01*
X28215166Y-18736904D01*
X28199696Y-18739354D01*
X28185740Y-18746465D01*
X28185737Y-18746466D01*
X28100612Y-18789840D01*
X28086658Y-18796950D01*
X27998557Y-18885051D01*
X27923569Y-18932170D01*
X27835562Y-18942086D01*
X27751969Y-18912835D01*
X27717129Y-18885051D01*
X21257135Y-12425057D01*
X21210016Y-12350069D01*
X21199606Y-12267001D01*
X21205468Y-12200000D01*
X21205033Y-12195025D01*
X21224418Y-12110091D01*
X21279637Y-12040850D01*
X21359429Y-12002423D01*
X21447993Y-12002423D01*
X21527785Y-12040850D01*
X21548537Y-12059956D01*
X21718369Y-12240177D01*
X21718383Y-12240191D01*
X21721826Y-12243844D01*
X22020526Y-12502586D01*
X22343845Y-12729818D01*
X22348231Y-12732279D01*
X22348240Y-12732285D01*
X22684086Y-12920753D01*
X22684091Y-12920755D01*
X22688472Y-12923214D01*
X22693082Y-12925218D01*
X22693085Y-12925220D01*
X23046264Y-13078787D01*
X23046268Y-13078788D01*
X23050878Y-13080793D01*
X23427353Y-13200941D01*
X23432283Y-13201980D01*
X23432287Y-13201981D01*
X23715260Y-13261613D01*
X23814043Y-13282430D01*
X24206988Y-13324423D01*
X24424484Y-13325562D01*
X24597133Y-13326467D01*
X24597140Y-13326467D01*
X24602166Y-13326493D01*
X24623394Y-13324449D01*
X24634319Y-13323397D01*
X24995529Y-13288616D01*
X25000477Y-13287627D01*
X25000479Y-13287627D01*
X25378118Y-13212167D01*
X25378123Y-13212166D01*
X25383051Y-13211181D01*
X25387852Y-13209704D01*
X25387856Y-13209703D01*
X25755950Y-13096463D01*
X25755951Y-13096463D01*
X25760764Y-13094982D01*
X26124801Y-12941207D01*
X26129215Y-12938790D01*
X26129222Y-12938787D01*
X26467012Y-12753852D01*
X26471434Y-12751431D01*
X26797114Y-12527597D01*
X26830505Y-12499280D01*
X27094671Y-12275250D01*
X27098508Y-12271996D01*
X27372528Y-11987247D01*
X27589420Y-11710635D01*
X27613259Y-11680232D01*
X27613262Y-11680228D01*
X27616370Y-11676264D01*
X27657293Y-11611530D01*
X27720088Y-11549078D01*
X27803761Y-11520057D01*
X27891740Y-11530214D01*
X27966599Y-11577538D01*
X28013512Y-11652656D01*
X28024500Y-11717866D01*
X28024500Y-13888248D01*
X28004793Y-13974591D01*
X27998524Y-13985084D01*
X27996950Y-13986658D01*
X27939354Y-14099696D01*
X27924500Y-14193481D01*
X27924501Y-15756518D01*
X27925723Y-15764231D01*
X27925723Y-15764237D01*
X27936903Y-15834831D01*
X27936904Y-15834834D01*
X27939354Y-15850304D01*
X27946465Y-15864260D01*
X27946466Y-15864263D01*
X27982738Y-15935449D01*
X27996950Y-15963342D01*
X28086658Y-16053050D01*
X28199696Y-16110646D01*
X28293481Y-16125500D01*
X28301305Y-16125500D01*
X28825373Y-16125499D01*
X29356518Y-16125499D01*
X29364231Y-16124277D01*
X29364237Y-16124277D01*
X29434831Y-16113097D01*
X29434834Y-16113096D01*
X29450304Y-16110646D01*
X29464260Y-16103535D01*
X29464263Y-16103534D01*
X29549388Y-16060160D01*
X29563342Y-16053050D01*
X29653050Y-15963342D01*
X29710646Y-15850304D01*
X29725500Y-15756519D01*
X29725499Y-14193482D01*
X29722493Y-14174500D01*
X29713097Y-14115169D01*
X29713096Y-14115166D01*
X29710646Y-14099696D01*
X29693398Y-14065844D01*
X29653050Y-13986658D01*
X29655122Y-13985603D01*
X29628697Y-13923776D01*
X29625500Y-13888248D01*
X29625500Y-8938006D01*
X29645207Y-8851663D01*
X29700426Y-8782422D01*
X29780218Y-8743995D01*
X29868782Y-8743995D01*
X29948574Y-8782422D01*
G37*
%TD.AperFunction*%
%TA.AperFunction,NonConductor*%
G36*
X20054730Y-13511713D02*
G01*
X20125057Y-13557135D01*
X25302708Y-18734786D01*
X25349827Y-18809774D01*
X25359743Y-18897781D01*
X25330492Y-18981374D01*
X25267868Y-19043998D01*
X25184275Y-19073249D01*
X25161994Y-19074500D01*
X23934465Y-19074500D01*
X23932381Y-19074489D01*
X23854715Y-19073675D01*
X23854711Y-19073675D01*
X23843593Y-19073559D01*
X23832720Y-19075910D01*
X23832718Y-19075910D01*
X23805315Y-19081834D01*
X23785449Y-19085088D01*
X23767400Y-19087113D01*
X23746528Y-19089454D01*
X23736018Y-19093114D01*
X23719464Y-19098879D01*
X23696067Y-19105455D01*
X23668058Y-19111511D01*
X23632562Y-19128063D01*
X23613913Y-19135635D01*
X23587439Y-19144854D01*
X23587436Y-19144855D01*
X23576927Y-19148515D01*
X23567489Y-19154413D01*
X23567488Y-19154413D01*
X23552617Y-19163705D01*
X23531272Y-19175294D01*
X23515380Y-19182705D01*
X23515374Y-19182708D01*
X23505292Y-19187410D01*
X23474351Y-19211411D01*
X23457844Y-19222926D01*
X23424625Y-19243684D01*
X23416731Y-19251523D01*
X23416726Y-19251527D01*
X23395922Y-19272186D01*
X23395547Y-19272537D01*
X23394823Y-19273099D01*
X23369310Y-19298612D01*
X23368819Y-19299102D01*
X23297193Y-19370230D01*
X23296496Y-19371329D01*
X23295641Y-19372281D01*
X16115214Y-26552708D01*
X16040226Y-26599827D01*
X15952219Y-26609743D01*
X15868626Y-26580492D01*
X15806002Y-26517868D01*
X15776751Y-26434275D01*
X15775500Y-26411994D01*
X15775500Y-23934465D01*
X15775511Y-23932381D01*
X15776325Y-23854715D01*
X15776325Y-23854711D01*
X15776441Y-23843593D01*
X15774090Y-23832718D01*
X15768166Y-23805315D01*
X15764912Y-23785449D01*
X15761786Y-23757584D01*
X15760546Y-23746528D01*
X15751121Y-23719462D01*
X15744545Y-23696069D01*
X15740841Y-23678937D01*
X15738489Y-23668058D01*
X15721937Y-23632562D01*
X15714365Y-23613913D01*
X15705146Y-23587439D01*
X15705145Y-23587436D01*
X15701485Y-23576927D01*
X15686295Y-23552617D01*
X15674706Y-23531272D01*
X15667295Y-23515380D01*
X15667292Y-23515374D01*
X15662590Y-23505292D01*
X15638586Y-23474346D01*
X15627074Y-23457844D01*
X15606316Y-23424625D01*
X15598477Y-23416731D01*
X15598473Y-23416726D01*
X15577814Y-23395922D01*
X15577463Y-23395547D01*
X15576901Y-23394823D01*
X15551388Y-23369310D01*
X15550898Y-23368819D01*
X15479770Y-23297193D01*
X15478671Y-23296496D01*
X15477719Y-23295641D01*
X8297292Y-16115214D01*
X8250173Y-16040226D01*
X8240257Y-15952219D01*
X8269508Y-15868626D01*
X8332132Y-15806002D01*
X8415725Y-15776751D01*
X8438006Y-15775500D01*
X17115535Y-15775500D01*
X17117619Y-15775511D01*
X17195285Y-15776325D01*
X17195289Y-15776325D01*
X17206407Y-15776441D01*
X17217280Y-15774090D01*
X17217282Y-15774090D01*
X17244685Y-15768166D01*
X17264551Y-15764912D01*
X17282600Y-15762887D01*
X17303472Y-15760546D01*
X17330538Y-15751121D01*
X17353931Y-15744545D01*
X17371065Y-15740841D01*
X17371069Y-15740840D01*
X17381942Y-15738489D01*
X17417434Y-15721939D01*
X17436087Y-15714365D01*
X17462566Y-15705144D01*
X17473073Y-15701485D01*
X17497379Y-15686297D01*
X17518735Y-15674702D01*
X17534621Y-15667294D01*
X17544707Y-15662591D01*
X17575648Y-15638590D01*
X17592165Y-15627068D01*
X17615939Y-15612213D01*
X17615944Y-15612209D01*
X17625375Y-15606316D01*
X17633268Y-15598478D01*
X17633273Y-15598474D01*
X17654078Y-15577814D01*
X17654453Y-15577463D01*
X17655177Y-15576901D01*
X17680690Y-15551388D01*
X17681181Y-15550898D01*
X17686466Y-15545650D01*
X17752807Y-15479770D01*
X17753504Y-15478671D01*
X17754359Y-15477719D01*
X19674943Y-13557135D01*
X19749931Y-13510016D01*
X19832999Y-13499606D01*
X19900000Y-13505468D01*
X19967000Y-13499606D01*
X20054730Y-13511713D01*
G37*
%TD.AperFunction*%
%TA.AperFunction,NonConductor*%
G36*
X27561178Y-20675501D02*
G01*
X27658268Y-20675840D01*
X27658269Y-20675840D01*
X27662000Y-20675853D01*
X27663270Y-20675569D01*
X27664545Y-20675500D01*
X27779293Y-20675500D01*
X27865636Y-20695207D01*
X27934877Y-20750426D01*
X27956597Y-20784145D01*
X27996950Y-20863342D01*
X28086658Y-20953050D01*
X28100612Y-20960160D01*
X28153320Y-20987016D01*
X28199696Y-21010646D01*
X28293481Y-21025500D01*
X28374746Y-21025500D01*
X29261995Y-21025499D01*
X29348338Y-21045206D01*
X29417579Y-21100424D01*
X29456006Y-21180217D01*
X29456006Y-21268780D01*
X29417580Y-21348573D01*
X29402709Y-21365213D01*
X22801708Y-27966214D01*
X22726720Y-28013333D01*
X22660994Y-28024500D01*
X20961752Y-28024500D01*
X20875409Y-28004793D01*
X20864916Y-27998524D01*
X20863342Y-27996950D01*
X20750304Y-27939354D01*
X20656519Y-27924500D01*
X20648695Y-27924500D01*
X19874451Y-27924501D01*
X19093482Y-27924501D01*
X19085769Y-27925723D01*
X19085763Y-27925723D01*
X19015169Y-27936903D01*
X19015166Y-27936904D01*
X18999696Y-27939354D01*
X18985740Y-27946465D01*
X18985737Y-27946466D01*
X18905701Y-27987247D01*
X18886658Y-27996950D01*
X18796950Y-28086658D01*
X18739354Y-28199696D01*
X18724500Y-28293481D01*
X18724501Y-29356518D01*
X18725723Y-29364231D01*
X18725723Y-29364237D01*
X18736903Y-29434831D01*
X18736904Y-29434834D01*
X18739354Y-29450304D01*
X18746465Y-29464260D01*
X18746466Y-29464263D01*
X18767616Y-29505772D01*
X18796950Y-29563342D01*
X18886658Y-29653050D01*
X18999696Y-29710646D01*
X19093481Y-29725500D01*
X19101305Y-29725500D01*
X19875549Y-29725499D01*
X20656518Y-29725499D01*
X20664231Y-29724277D01*
X20664237Y-29724277D01*
X20734831Y-29713097D01*
X20734834Y-29713096D01*
X20750304Y-29710646D01*
X20764260Y-29703535D01*
X20764263Y-29703534D01*
X20863342Y-29653050D01*
X20864397Y-29655122D01*
X20926224Y-29628697D01*
X20961752Y-29625500D01*
X23065535Y-29625500D01*
X23067619Y-29625511D01*
X23145285Y-29626325D01*
X23145289Y-29626325D01*
X23156407Y-29626441D01*
X23167280Y-29624090D01*
X23167282Y-29624090D01*
X23194685Y-29618166D01*
X23214551Y-29614912D01*
X23232600Y-29612887D01*
X23253472Y-29610546D01*
X23280538Y-29601121D01*
X23303931Y-29594545D01*
X23321065Y-29590841D01*
X23321069Y-29590840D01*
X23331942Y-29588489D01*
X23367434Y-29571939D01*
X23386087Y-29564365D01*
X23412566Y-29555144D01*
X23423073Y-29551485D01*
X23447379Y-29536297D01*
X23468735Y-29524702D01*
X23484621Y-29517294D01*
X23494707Y-29512591D01*
X23525648Y-29488590D01*
X23542165Y-29477068D01*
X23565939Y-29462213D01*
X23565944Y-29462209D01*
X23575375Y-29456316D01*
X23583268Y-29448478D01*
X23583273Y-29448474D01*
X23604078Y-29427814D01*
X23604453Y-29427463D01*
X23605177Y-29426901D01*
X23630690Y-29401388D01*
X23631181Y-29400898D01*
X23702807Y-29329770D01*
X23703504Y-29328671D01*
X23704359Y-29327719D01*
X31948292Y-21083786D01*
X32023280Y-21036667D01*
X32089006Y-21025500D01*
X32125500Y-21025500D01*
X32211843Y-21045207D01*
X32281084Y-21100426D01*
X32319511Y-21180218D01*
X32324500Y-21224500D01*
X32324500Y-21310994D01*
X32304793Y-21397337D01*
X32266214Y-21451708D01*
X22551708Y-31166214D01*
X22476720Y-31213333D01*
X22410994Y-31224500D01*
X20961752Y-31224500D01*
X20875409Y-31204793D01*
X20864916Y-31198524D01*
X20863342Y-31196950D01*
X20750304Y-31139354D01*
X20656519Y-31124500D01*
X20648695Y-31124500D01*
X19874451Y-31124501D01*
X19093482Y-31124501D01*
X19085769Y-31125723D01*
X19085763Y-31125723D01*
X19015169Y-31136903D01*
X19015166Y-31136904D01*
X18999696Y-31139354D01*
X18985740Y-31146465D01*
X18985737Y-31146466D01*
X18926442Y-31176679D01*
X18886658Y-31196950D01*
X18796950Y-31286658D01*
X18739354Y-31399696D01*
X18724500Y-31493481D01*
X18724500Y-31501305D01*
X18724501Y-31960993D01*
X18704794Y-32047335D01*
X18666215Y-32101707D01*
X18501708Y-32266214D01*
X18426720Y-32313333D01*
X18360994Y-32324500D01*
X16324500Y-32324500D01*
X16238157Y-32304793D01*
X16168916Y-32249574D01*
X16130489Y-32169782D01*
X16125500Y-32125500D01*
X16125499Y-31501295D01*
X16125499Y-31493482D01*
X16124275Y-31485753D01*
X16113097Y-31415169D01*
X16113096Y-31415166D01*
X16110646Y-31399696D01*
X16053050Y-31286658D01*
X15963342Y-31196950D01*
X15850304Y-31139354D01*
X15756519Y-31124500D01*
X15748695Y-31124500D01*
X14974451Y-31124501D01*
X14193482Y-31124501D01*
X14185769Y-31125723D01*
X14185763Y-31125723D01*
X14115169Y-31136903D01*
X14115166Y-31136904D01*
X14099696Y-31139354D01*
X14085740Y-31146465D01*
X14085737Y-31146466D01*
X13986658Y-31196950D01*
X13985603Y-31194878D01*
X13923776Y-31221303D01*
X13888248Y-31224500D01*
X11640730Y-31224500D01*
X11554387Y-31204793D01*
X11500016Y-31166214D01*
X9991031Y-29657229D01*
X9943912Y-29582241D01*
X9933996Y-29494234D01*
X9963247Y-29410641D01*
X10025871Y-29348017D01*
X10109464Y-29318766D01*
X10152890Y-29318642D01*
X10182464Y-29321802D01*
X10206988Y-29324423D01*
X10424484Y-29325562D01*
X10597133Y-29326467D01*
X10597140Y-29326467D01*
X10602166Y-29326493D01*
X10623394Y-29324449D01*
X10634319Y-29323397D01*
X10995529Y-29288616D01*
X11000477Y-29287627D01*
X11000479Y-29287627D01*
X11378118Y-29212167D01*
X11378123Y-29212166D01*
X11383051Y-29211181D01*
X11387852Y-29209704D01*
X11387856Y-29209703D01*
X11755950Y-29096463D01*
X11755951Y-29096463D01*
X11760764Y-29094982D01*
X12124801Y-28941207D01*
X12129215Y-28938790D01*
X12129222Y-28938787D01*
X12467012Y-28753852D01*
X12471434Y-28751431D01*
X12797114Y-28527597D01*
X13098508Y-28271996D01*
X13363191Y-27996950D01*
X13369033Y-27990879D01*
X13369034Y-27990877D01*
X13372528Y-27987247D01*
X13616370Y-27676264D01*
X13807293Y-27374254D01*
X13870088Y-27311802D01*
X13953762Y-27282781D01*
X14041741Y-27292938D01*
X14116600Y-27340262D01*
X14163512Y-27415380D01*
X14174500Y-27480590D01*
X14174500Y-27779293D01*
X14154793Y-27865636D01*
X14099574Y-27934877D01*
X14065855Y-27956597D01*
X13986658Y-27996950D01*
X13896950Y-28086658D01*
X13839354Y-28199696D01*
X13824500Y-28293481D01*
X13824501Y-29356518D01*
X13825723Y-29364231D01*
X13825723Y-29364237D01*
X13836903Y-29434831D01*
X13836904Y-29434834D01*
X13839354Y-29450304D01*
X13846465Y-29464260D01*
X13846466Y-29464263D01*
X13867616Y-29505772D01*
X13896950Y-29563342D01*
X13986658Y-29653050D01*
X14099696Y-29710646D01*
X14193481Y-29725500D01*
X14201305Y-29725500D01*
X14975549Y-29725499D01*
X15756518Y-29725499D01*
X15764231Y-29724277D01*
X15764237Y-29724277D01*
X15834831Y-29713097D01*
X15834834Y-29713096D01*
X15850304Y-29710646D01*
X15864260Y-29703535D01*
X15864263Y-29703534D01*
X15949388Y-29660160D01*
X15963342Y-29653050D01*
X16053050Y-29563342D01*
X16110646Y-29450304D01*
X16125500Y-29356519D01*
X16125499Y-28889006D01*
X16145206Y-28802665D01*
X16183785Y-28748293D01*
X24198292Y-20733786D01*
X24273280Y-20686667D01*
X24339006Y-20675500D01*
X27560483Y-20675500D01*
X27561178Y-20675501D01*
G37*
%TD.AperFunction*%
%TA.AperFunction,NonConductor*%
G36*
X31263022Y-445207D02*
G01*
X31317393Y-483786D01*
X34366214Y-3532606D01*
X34413333Y-3607594D01*
X34424500Y-3673320D01*
X34424500Y-31176680D01*
X34404793Y-31263023D01*
X34366214Y-31317394D01*
X31317393Y-34366214D01*
X31242405Y-34413333D01*
X31176679Y-34424500D01*
X3673320Y-34424500D01*
X3586977Y-34404793D01*
X3532606Y-34366214D01*
X483786Y-31317393D01*
X436667Y-31242405D01*
X425500Y-31176679D01*
X425500Y-19093481D01*
X1924500Y-19093481D01*
X1924501Y-20656518D01*
X1925723Y-20664231D01*
X1925723Y-20664237D01*
X1936903Y-20734831D01*
X1936904Y-20734834D01*
X1939354Y-20750304D01*
X1946465Y-20764260D01*
X1946466Y-20764263D01*
X1996950Y-20863342D01*
X1994878Y-20864397D01*
X2021303Y-20926224D01*
X2024500Y-20961752D01*
X2024500Y-25115535D01*
X2024489Y-25117619D01*
X2023559Y-25206407D01*
X2025910Y-25217280D01*
X2025910Y-25217282D01*
X2031834Y-25244685D01*
X2035088Y-25264551D01*
X2039454Y-25303472D01*
X2043114Y-25313982D01*
X2048879Y-25330536D01*
X2055455Y-25353931D01*
X2061511Y-25381942D01*
X2066213Y-25392025D01*
X2078060Y-25417432D01*
X2085634Y-25436086D01*
X2098515Y-25473073D01*
X2104410Y-25482507D01*
X2104411Y-25482509D01*
X2113703Y-25497379D01*
X2125298Y-25518735D01*
X2137409Y-25544707D01*
X2144227Y-25553497D01*
X2144228Y-25553498D01*
X2161410Y-25575648D01*
X2172932Y-25592165D01*
X2187787Y-25615939D01*
X2187791Y-25615944D01*
X2193684Y-25625375D01*
X2201522Y-25633268D01*
X2201526Y-25633273D01*
X2222186Y-25654078D01*
X2222537Y-25654453D01*
X2223099Y-25655177D01*
X2248612Y-25680690D01*
X2249102Y-25681181D01*
X2320230Y-25752807D01*
X2321329Y-25753504D01*
X2322281Y-25754359D01*
X10252228Y-33684306D01*
X10253693Y-33685786D01*
X10315859Y-33749268D01*
X10335946Y-33762213D01*
X10348786Y-33770488D01*
X10365137Y-33782238D01*
X10395734Y-33806663D01*
X10405747Y-33811504D01*
X10405754Y-33811508D01*
X10421539Y-33819139D01*
X10442726Y-33831028D01*
X10466817Y-33846554D01*
X10503637Y-33859956D01*
X10522167Y-33867784D01*
X10547405Y-33879985D01*
X10547408Y-33879986D01*
X10557422Y-33884827D01*
X10582549Y-33890628D01*
X10585347Y-33891274D01*
X10608646Y-33898176D01*
X10625121Y-33904172D01*
X10635578Y-33907978D01*
X10655905Y-33910546D01*
X10674435Y-33912887D01*
X10694255Y-33916418D01*
X10721064Y-33922607D01*
X10732410Y-33925226D01*
X10743534Y-33925265D01*
X10772854Y-33925368D01*
X10773369Y-33925385D01*
X10774283Y-33925500D01*
X10810482Y-33925500D01*
X10811177Y-33925501D01*
X10908268Y-33925840D01*
X10908269Y-33925840D01*
X10912000Y-33925853D01*
X10913270Y-33925569D01*
X10914545Y-33925500D01*
X18765535Y-33925500D01*
X18767619Y-33925511D01*
X18845285Y-33926325D01*
X18845289Y-33926325D01*
X18856407Y-33926441D01*
X18867280Y-33924090D01*
X18867282Y-33924090D01*
X18894685Y-33918166D01*
X18914551Y-33914912D01*
X18932600Y-33912887D01*
X18953472Y-33910546D01*
X18980538Y-33901121D01*
X19003931Y-33894545D01*
X19021065Y-33890841D01*
X19021069Y-33890840D01*
X19031942Y-33888489D01*
X19067434Y-33871939D01*
X19086087Y-33864365D01*
X19112566Y-33855144D01*
X19123073Y-33851485D01*
X19147379Y-33836297D01*
X19168735Y-33824702D01*
X19184621Y-33817294D01*
X19194707Y-33812591D01*
X19225648Y-33788590D01*
X19242165Y-33777068D01*
X19265939Y-33762213D01*
X19265944Y-33762209D01*
X19275375Y-33756316D01*
X19283268Y-33748478D01*
X19283273Y-33748474D01*
X19304078Y-33727814D01*
X19304453Y-33727463D01*
X19305177Y-33726901D01*
X19330690Y-33701388D01*
X19331181Y-33700898D01*
X19347889Y-33684306D01*
X19402807Y-33629770D01*
X19403504Y-33628671D01*
X19404359Y-33627719D01*
X20048293Y-32983785D01*
X20123281Y-32936666D01*
X20189007Y-32925499D01*
X20656518Y-32925499D01*
X20664231Y-32924277D01*
X20664237Y-32924277D01*
X20734831Y-32913097D01*
X20734834Y-32913096D01*
X20750304Y-32910646D01*
X20764260Y-32903535D01*
X20764263Y-32903534D01*
X20863342Y-32853050D01*
X20864397Y-32855122D01*
X20926224Y-32828697D01*
X20961752Y-32825500D01*
X22815535Y-32825500D01*
X22817619Y-32825511D01*
X22895285Y-32826325D01*
X22895289Y-32826325D01*
X22906407Y-32826441D01*
X22917280Y-32824090D01*
X22917282Y-32824090D01*
X22944685Y-32818166D01*
X22964551Y-32814912D01*
X22982600Y-32812887D01*
X23003472Y-32810546D01*
X23030538Y-32801121D01*
X23053931Y-32794545D01*
X23071065Y-32790841D01*
X23071069Y-32790840D01*
X23081942Y-32788489D01*
X23117434Y-32771939D01*
X23136087Y-32764365D01*
X23162566Y-32755144D01*
X23173073Y-32751485D01*
X23197379Y-32736297D01*
X23218735Y-32724702D01*
X23234621Y-32717294D01*
X23244707Y-32712591D01*
X23275648Y-32688590D01*
X23292165Y-32677068D01*
X23315939Y-32662213D01*
X23315944Y-32662209D01*
X23325375Y-32656316D01*
X23333268Y-32648478D01*
X23333273Y-32648474D01*
X23354078Y-32627814D01*
X23354453Y-32627463D01*
X23355177Y-32626901D01*
X23380690Y-32601388D01*
X23381181Y-32600898D01*
X23452807Y-32529770D01*
X23453504Y-32528671D01*
X23454359Y-32527719D01*
X33684306Y-22297772D01*
X33685787Y-22296306D01*
X33741316Y-22241928D01*
X33749268Y-22234141D01*
X33770485Y-22201218D01*
X33782231Y-22184872D01*
X33799721Y-22162963D01*
X33806664Y-22154266D01*
X33819144Y-22128451D01*
X33831025Y-22107280D01*
X33833594Y-22103294D01*
X33846554Y-22083183D01*
X33859948Y-22046384D01*
X33867782Y-22027837D01*
X33879985Y-22002594D01*
X33879986Y-22002592D01*
X33884827Y-21992577D01*
X33891273Y-21964657D01*
X33898173Y-21941361D01*
X33904174Y-21924873D01*
X33907978Y-21914422D01*
X33912886Y-21875570D01*
X33916418Y-21855742D01*
X33925227Y-21817589D01*
X33925368Y-21777137D01*
X33925385Y-21776625D01*
X33925500Y-21775717D01*
X33925500Y-21739676D01*
X33925501Y-21738982D01*
X33925840Y-21641731D01*
X33925853Y-21637999D01*
X33925569Y-21636729D01*
X33925500Y-21635453D01*
X33925500Y-16084465D01*
X33925511Y-16082381D01*
X33926325Y-16004715D01*
X33926325Y-16004711D01*
X33926441Y-15993593D01*
X33919901Y-15963342D01*
X33918166Y-15955315D01*
X33914912Y-15935449D01*
X33911786Y-15907584D01*
X33910546Y-15896528D01*
X33901121Y-15869462D01*
X33894545Y-15846069D01*
X33890841Y-15828935D01*
X33890840Y-15828931D01*
X33888489Y-15818058D01*
X33871939Y-15782566D01*
X33864365Y-15763913D01*
X33863193Y-15760546D01*
X33851485Y-15726927D01*
X33843636Y-15714365D01*
X33836297Y-15702621D01*
X33824702Y-15681265D01*
X33817294Y-15665379D01*
X33812591Y-15655293D01*
X33799635Y-15638590D01*
X33788590Y-15624352D01*
X33777068Y-15607835D01*
X33762213Y-15584061D01*
X33762209Y-15584056D01*
X33756316Y-15574625D01*
X33748478Y-15566732D01*
X33748474Y-15566727D01*
X33727814Y-15545922D01*
X33727463Y-15545547D01*
X33726901Y-15544823D01*
X33701388Y-15519310D01*
X33700898Y-15518819D01*
X33660764Y-15478404D01*
X33629770Y-15447193D01*
X33628671Y-15446496D01*
X33627719Y-15445641D01*
X32983785Y-14801707D01*
X32936666Y-14726719D01*
X32925499Y-14660993D01*
X32925499Y-14193482D01*
X32922493Y-14174500D01*
X32913097Y-14115169D01*
X32913096Y-14115166D01*
X32910646Y-14099696D01*
X32893398Y-14065844D01*
X32853050Y-13986658D01*
X32855122Y-13985603D01*
X32828697Y-13923776D01*
X32825500Y-13888248D01*
X32825500Y-9734465D01*
X32825511Y-9732381D01*
X32826325Y-9654715D01*
X32826325Y-9654711D01*
X32826441Y-9643593D01*
X32824090Y-9632718D01*
X32818166Y-9605315D01*
X32814912Y-9585449D01*
X32811786Y-9557584D01*
X32810546Y-9546528D01*
X32801121Y-9519462D01*
X32794545Y-9496069D01*
X32790841Y-9478937D01*
X32788489Y-9468058D01*
X32771937Y-9432562D01*
X32764365Y-9413913D01*
X32755146Y-9387439D01*
X32755145Y-9387436D01*
X32751485Y-9376927D01*
X32736295Y-9352617D01*
X32724706Y-9331272D01*
X32717295Y-9315380D01*
X32717292Y-9315374D01*
X32712590Y-9305292D01*
X32688586Y-9274346D01*
X32677074Y-9257844D01*
X32656316Y-9224625D01*
X32648477Y-9216731D01*
X32648473Y-9216726D01*
X32627814Y-9195922D01*
X32627463Y-9195547D01*
X32626901Y-9194823D01*
X32601388Y-9169310D01*
X32600898Y-9168819D01*
X32570897Y-9138608D01*
X32529770Y-9097193D01*
X32528671Y-9096496D01*
X32527719Y-9095641D01*
X24597772Y-1165694D01*
X24596306Y-1164213D01*
X24541928Y-1108684D01*
X24534141Y-1100732D01*
X24501218Y-1079515D01*
X24484872Y-1067769D01*
X24462960Y-1050276D01*
X24462957Y-1050274D01*
X24454266Y-1043336D01*
X24428459Y-1030860D01*
X24407278Y-1018974D01*
X24392537Y-1009474D01*
X24392535Y-1009473D01*
X24383183Y-1003446D01*
X24346381Y-990051D01*
X24327843Y-982220D01*
X24302595Y-970015D01*
X24302593Y-970014D01*
X24292578Y-965173D01*
X24281738Y-962670D01*
X24281737Y-962670D01*
X24264653Y-958726D01*
X24241360Y-951826D01*
X24224882Y-945829D01*
X24214422Y-942022D01*
X24175565Y-937113D01*
X24155742Y-933582D01*
X24128428Y-927276D01*
X24128425Y-927276D01*
X24117589Y-924774D01*
X24106465Y-924735D01*
X24077146Y-924632D01*
X24076631Y-924615D01*
X24075717Y-924500D01*
X24039517Y-924500D01*
X24038822Y-924499D01*
X23941732Y-924160D01*
X23941731Y-924160D01*
X23938000Y-924147D01*
X23936730Y-924431D01*
X23935455Y-924500D01*
X16084465Y-924500D01*
X16082381Y-924489D01*
X16004715Y-923675D01*
X16004711Y-923675D01*
X15993593Y-923559D01*
X15982720Y-925910D01*
X15982718Y-925910D01*
X15955315Y-931834D01*
X15935449Y-935088D01*
X15917400Y-937113D01*
X15896528Y-939454D01*
X15886018Y-943114D01*
X15869464Y-948879D01*
X15846069Y-955455D01*
X15828935Y-959159D01*
X15828931Y-959160D01*
X15818058Y-961511D01*
X15799821Y-970015D01*
X15782568Y-978060D01*
X15763914Y-985634D01*
X15726927Y-998515D01*
X15717493Y-1004410D01*
X15717491Y-1004411D01*
X15702621Y-1013703D01*
X15681265Y-1025298D01*
X15671932Y-1029650D01*
X15655293Y-1037409D01*
X15646503Y-1044227D01*
X15646502Y-1044228D01*
X15624352Y-1061410D01*
X15607835Y-1072932D01*
X15584061Y-1087787D01*
X15584056Y-1087791D01*
X15574625Y-1093684D01*
X15566732Y-1101522D01*
X15566727Y-1101526D01*
X15545922Y-1122186D01*
X15545547Y-1122537D01*
X15544823Y-1123099D01*
X15519310Y-1148612D01*
X15518819Y-1149102D01*
X15447193Y-1220230D01*
X15446496Y-1221329D01*
X15445641Y-1222281D01*
X14801707Y-1866215D01*
X14726719Y-1913334D01*
X14660993Y-1924501D01*
X14193482Y-1924501D01*
X14185769Y-1925723D01*
X14185763Y-1925723D01*
X14115169Y-1936903D01*
X14115166Y-1936904D01*
X14099696Y-1939354D01*
X14085740Y-1946465D01*
X14085737Y-1946466D01*
X14000612Y-1989840D01*
X13986658Y-1996950D01*
X13896950Y-2086658D01*
X13839354Y-2199696D01*
X13824500Y-2293481D01*
X13824501Y-2545207D01*
X13824501Y-2760993D01*
X13804794Y-2847335D01*
X13766215Y-2901707D01*
X11865694Y-4802228D01*
X11864214Y-4803693D01*
X11800732Y-4865859D01*
X11779515Y-4898782D01*
X11767771Y-4915125D01*
X11743336Y-4945734D01*
X11730860Y-4971541D01*
X11718974Y-4992722D01*
X11703446Y-5016817D01*
X11690053Y-5053614D01*
X11682220Y-5072157D01*
X11665173Y-5107422D01*
X11662670Y-5118262D01*
X11662670Y-5118263D01*
X11658726Y-5135347D01*
X11651826Y-5158640D01*
X11642022Y-5185578D01*
X11637486Y-5221481D01*
X11637113Y-5224436D01*
X11633582Y-5244258D01*
X11624774Y-5282411D01*
X11624735Y-5293535D01*
X11624632Y-5322854D01*
X11624615Y-5323369D01*
X11624500Y-5324283D01*
X11624500Y-5360483D01*
X11624499Y-5361178D01*
X11624311Y-5415169D01*
X11624147Y-5462000D01*
X11624431Y-5463270D01*
X11624500Y-5464545D01*
X11624500Y-6303886D01*
X11604793Y-6390229D01*
X11566214Y-6444600D01*
X11424953Y-6585861D01*
X11419973Y-6592973D01*
X11419969Y-6592978D01*
X11358492Y-6680778D01*
X11294432Y-6772266D01*
X11198261Y-6978504D01*
X11196011Y-6986901D01*
X11141613Y-7189916D01*
X11141612Y-7189923D01*
X11139365Y-7198308D01*
X11119532Y-7425000D01*
X11120289Y-7433653D01*
X11133606Y-7585861D01*
X11139365Y-7651692D01*
X11141612Y-7660077D01*
X11141613Y-7660084D01*
X11173783Y-7780144D01*
X11198261Y-7871496D01*
X11294432Y-8077734D01*
X11299416Y-8084852D01*
X11419969Y-8257022D01*
X11419973Y-8257027D01*
X11424953Y-8264139D01*
X11585861Y-8425047D01*
X11592973Y-8430027D01*
X11592978Y-8430031D01*
X11736736Y-8530690D01*
X11772266Y-8555568D01*
X11978504Y-8651739D01*
X11986901Y-8653989D01*
X12189916Y-8708387D01*
X12189923Y-8708388D01*
X12198308Y-8710635D01*
X12206959Y-8711392D01*
X12206960Y-8711392D01*
X12416347Y-8729711D01*
X12425000Y-8730468D01*
X12433653Y-8729711D01*
X12643040Y-8711392D01*
X12643041Y-8711392D01*
X12651692Y-8710635D01*
X12660077Y-8708388D01*
X12660084Y-8708387D01*
X12863099Y-8653989D01*
X12871496Y-8651739D01*
X13077734Y-8555568D01*
X13113264Y-8530690D01*
X13257022Y-8430031D01*
X13257027Y-8430027D01*
X13264139Y-8425047D01*
X13425047Y-8264139D01*
X13430027Y-8257027D01*
X13430031Y-8257022D01*
X13550584Y-8084852D01*
X13555568Y-8077734D01*
X13651739Y-7871496D01*
X13676217Y-7780144D01*
X13708387Y-7660084D01*
X13708388Y-7660077D01*
X13710635Y-7651692D01*
X13716395Y-7585861D01*
X13729711Y-7433653D01*
X13730468Y-7425000D01*
X13710635Y-7198308D01*
X13708388Y-7189923D01*
X13708387Y-7189916D01*
X13673473Y-7059617D01*
X13670161Y-6971115D01*
X13705577Y-6889942D01*
X13772706Y-6832173D01*
X13858251Y-6809251D01*
X13945271Y-6825716D01*
X13978134Y-6844526D01*
X13986658Y-6853050D01*
X14065849Y-6893400D01*
X14133829Y-6950154D01*
X14170455Y-7030789D01*
X14174500Y-7070707D01*
X14174500Y-7965535D01*
X14174489Y-7967619D01*
X14174458Y-7970626D01*
X14173559Y-8056407D01*
X14175910Y-8067280D01*
X14175910Y-8067282D01*
X14181834Y-8094685D01*
X14185088Y-8114551D01*
X14189454Y-8153472D01*
X14193114Y-8163982D01*
X14198879Y-8180536D01*
X14205455Y-8203931D01*
X14211511Y-8231942D01*
X14228060Y-8267432D01*
X14235634Y-8286086D01*
X14248515Y-8323073D01*
X14254410Y-8332507D01*
X14254411Y-8332509D01*
X14263703Y-8347379D01*
X14275298Y-8368735D01*
X14287409Y-8394707D01*
X14294227Y-8403497D01*
X14294228Y-8403498D01*
X14311410Y-8425648D01*
X14322932Y-8442165D01*
X14337787Y-8465939D01*
X14337791Y-8465944D01*
X14343684Y-8475375D01*
X14351522Y-8483268D01*
X14351526Y-8483273D01*
X14372186Y-8504078D01*
X14372537Y-8504453D01*
X14373099Y-8505177D01*
X14398612Y-8530690D01*
X14399102Y-8531181D01*
X14470230Y-8602807D01*
X14471329Y-8603504D01*
X14472281Y-8604359D01*
X16067865Y-10199943D01*
X16114984Y-10274931D01*
X16125394Y-10357999D01*
X16119532Y-10425000D01*
X16139365Y-10651692D01*
X16141612Y-10660077D01*
X16141613Y-10660084D01*
X16196011Y-10863099D01*
X16198261Y-10871496D01*
X16294432Y-11077734D01*
X16299416Y-11084852D01*
X16419969Y-11257022D01*
X16419973Y-11257027D01*
X16424953Y-11264139D01*
X16585861Y-11425047D01*
X16592973Y-11430027D01*
X16592978Y-11430031D01*
X16736056Y-11530214D01*
X16772266Y-11555568D01*
X16978504Y-11651739D01*
X16986901Y-11653989D01*
X17189916Y-11708387D01*
X17189923Y-11708388D01*
X17198308Y-11710635D01*
X17206959Y-11711392D01*
X17206960Y-11711392D01*
X17416347Y-11729711D01*
X17425000Y-11730468D01*
X17433653Y-11729711D01*
X17643040Y-11711392D01*
X17643041Y-11711392D01*
X17651692Y-11710635D01*
X17660077Y-11708388D01*
X17660084Y-11708387D01*
X17863099Y-11653989D01*
X17871496Y-11651739D01*
X18077734Y-11555568D01*
X18113944Y-11530214D01*
X18257022Y-11430031D01*
X18257027Y-11430027D01*
X18264139Y-11425047D01*
X18425047Y-11264139D01*
X18430027Y-11257027D01*
X18430031Y-11257022D01*
X18550584Y-11084852D01*
X18555568Y-11077734D01*
X18651739Y-10871496D01*
X18683281Y-10753779D01*
X18724663Y-10675479D01*
X18795921Y-10622888D01*
X18882941Y-10606423D01*
X18968486Y-10629345D01*
X19035615Y-10687114D01*
X19071031Y-10768287D01*
X19074500Y-10805284D01*
X19074500Y-11103886D01*
X19054793Y-11190229D01*
X19016214Y-11244600D01*
X18899953Y-11360861D01*
X18894973Y-11367973D01*
X18894969Y-11367978D01*
X18851520Y-11430031D01*
X18769432Y-11547266D01*
X18673261Y-11753504D01*
X18671011Y-11761901D01*
X18616613Y-11964916D01*
X18616612Y-11964923D01*
X18614365Y-11973308D01*
X18594532Y-12200000D01*
X18600394Y-12267000D01*
X18588287Y-12354730D01*
X18542865Y-12425057D01*
X16851708Y-14116214D01*
X16776720Y-14163333D01*
X16710994Y-14174500D01*
X7070707Y-14174500D01*
X6984364Y-14154793D01*
X6915123Y-14099574D01*
X6893403Y-14065855D01*
X6853050Y-13986658D01*
X6763342Y-13896950D01*
X6746264Y-13888248D01*
X6664260Y-13846465D01*
X6650304Y-13839354D01*
X6556519Y-13824500D01*
X6548695Y-13824500D01*
X6024627Y-13824501D01*
X5493482Y-13824501D01*
X5485769Y-13825723D01*
X5485763Y-13825723D01*
X5415169Y-13836903D01*
X5415166Y-13836904D01*
X5399696Y-13839354D01*
X5385740Y-13846465D01*
X5385737Y-13846466D01*
X5300612Y-13889840D01*
X5286658Y-13896950D01*
X5196950Y-13986658D01*
X5139354Y-14099696D01*
X5124500Y-14193481D01*
X5124501Y-15756518D01*
X5125723Y-15764231D01*
X5125723Y-15764237D01*
X5136903Y-15834831D01*
X5136904Y-15834834D01*
X5139354Y-15850304D01*
X5146465Y-15864260D01*
X5146466Y-15864263D01*
X5182738Y-15935449D01*
X5196950Y-15963342D01*
X5286658Y-16053050D01*
X5399696Y-16110646D01*
X5493481Y-16125500D01*
X5541156Y-16125500D01*
X5960994Y-16125499D01*
X6047335Y-16145206D01*
X6101707Y-16183785D01*
X11140236Y-21222314D01*
X11187355Y-21297302D01*
X11197271Y-21385309D01*
X11168020Y-21468902D01*
X11105396Y-21531526D01*
X11021803Y-21560777D01*
X10979068Y-21560974D01*
X10629399Y-21524839D01*
X10624376Y-21524830D01*
X10624371Y-21524830D01*
X10431087Y-21524493D01*
X10234217Y-21524150D01*
X9840988Y-21563399D01*
X9836044Y-21564405D01*
X9836043Y-21564405D01*
X9458681Y-21641180D01*
X9458675Y-21641182D01*
X9453738Y-21642186D01*
X9448923Y-21643686D01*
X9448918Y-21643687D01*
X9081242Y-21758205D01*
X9081239Y-21758206D01*
X9076433Y-21759703D01*
X8712936Y-21914748D01*
X8708523Y-21917184D01*
X8708517Y-21917187D01*
X8426761Y-22072725D01*
X8366967Y-22105733D01*
X8362831Y-22108597D01*
X8362826Y-22108600D01*
X8229054Y-22201228D01*
X8042070Y-22330702D01*
X7741571Y-22587353D01*
X7468546Y-22873057D01*
X7225791Y-23184890D01*
X7223111Y-23189163D01*
X7193077Y-23237041D01*
X7130500Y-23299711D01*
X7046928Y-23329024D01*
X6958914Y-23319174D01*
X6883890Y-23272111D01*
X6836716Y-23197157D01*
X6825500Y-23131292D01*
X6825500Y-20961752D01*
X6845207Y-20875409D01*
X6851476Y-20864916D01*
X6853050Y-20863342D01*
X6910646Y-20750304D01*
X6925500Y-20656519D01*
X6925499Y-19093482D01*
X6923992Y-19083965D01*
X6913097Y-19015169D01*
X6913096Y-19015166D01*
X6910646Y-18999696D01*
X6901311Y-18981374D01*
X6860160Y-18900612D01*
X6853050Y-18886658D01*
X6763342Y-18796950D01*
X6650304Y-18739354D01*
X6556519Y-18724500D01*
X6548695Y-18724500D01*
X6024627Y-18724501D01*
X5493482Y-18724501D01*
X5485769Y-18725723D01*
X5485763Y-18725723D01*
X5415169Y-18736903D01*
X5415166Y-18736904D01*
X5399696Y-18739354D01*
X5385740Y-18746465D01*
X5385737Y-18746466D01*
X5300612Y-18789840D01*
X5286658Y-18796950D01*
X5196950Y-18886658D01*
X5139354Y-18999696D01*
X5124500Y-19093481D01*
X5124501Y-20656518D01*
X5125723Y-20664231D01*
X5125723Y-20664237D01*
X5136903Y-20734831D01*
X5136904Y-20734834D01*
X5139354Y-20750304D01*
X5146465Y-20764260D01*
X5146466Y-20764263D01*
X5196950Y-20863342D01*
X5194878Y-20864397D01*
X5221303Y-20926224D01*
X5224500Y-20961752D01*
X5224500Y-25911994D01*
X5204793Y-25998337D01*
X5149574Y-26067578D01*
X5069782Y-26106005D01*
X4981218Y-26106005D01*
X4901426Y-26067578D01*
X4884786Y-26052708D01*
X3683786Y-24851708D01*
X3636667Y-24776720D01*
X3625500Y-24710994D01*
X3625500Y-20961752D01*
X3645207Y-20875409D01*
X3651476Y-20864916D01*
X3653050Y-20863342D01*
X3710646Y-20750304D01*
X3725500Y-20656519D01*
X3725499Y-19093482D01*
X3723992Y-19083965D01*
X3713097Y-19015169D01*
X3713096Y-19015166D01*
X3710646Y-18999696D01*
X3701311Y-18981374D01*
X3660160Y-18900612D01*
X3653050Y-18886658D01*
X3563342Y-18796950D01*
X3450304Y-18739354D01*
X3356519Y-18724500D01*
X3348695Y-18724500D01*
X2824627Y-18724501D01*
X2293482Y-18724501D01*
X2285769Y-18725723D01*
X2285763Y-18725723D01*
X2215169Y-18736903D01*
X2215166Y-18736904D01*
X2199696Y-18739354D01*
X2185740Y-18746465D01*
X2185737Y-18746466D01*
X2100612Y-18789840D01*
X2086658Y-18796950D01*
X1996950Y-18886658D01*
X1939354Y-18999696D01*
X1924500Y-19093481D01*
X425500Y-19093481D01*
X425500Y-9695036D01*
X445207Y-9608693D01*
X500426Y-9539452D01*
X580218Y-9501025D01*
X668782Y-9501025D01*
X738640Y-9532024D01*
X765142Y-9550581D01*
X765152Y-9550587D01*
X772266Y-9555568D01*
X978504Y-9651739D01*
X986901Y-9653989D01*
X1189916Y-9708387D01*
X1189923Y-9708388D01*
X1198308Y-9710635D01*
X1206959Y-9711392D01*
X1206960Y-9711392D01*
X1416347Y-9729711D01*
X1425000Y-9730468D01*
X1492000Y-9724606D01*
X1579730Y-9736713D01*
X1650057Y-9782135D01*
X1966214Y-10098292D01*
X2013333Y-10173280D01*
X2024500Y-10239006D01*
X2024500Y-13888248D01*
X2004793Y-13974591D01*
X1998524Y-13985084D01*
X1996950Y-13986658D01*
X1939354Y-14099696D01*
X1924500Y-14193481D01*
X1924501Y-15756518D01*
X1925723Y-15764231D01*
X1925723Y-15764237D01*
X1936903Y-15834831D01*
X1936904Y-15834834D01*
X1939354Y-15850304D01*
X1946465Y-15864260D01*
X1946466Y-15864263D01*
X1982738Y-15935449D01*
X1996950Y-15963342D01*
X2086658Y-16053050D01*
X2199696Y-16110646D01*
X2293481Y-16125500D01*
X2301305Y-16125500D01*
X2825373Y-16125499D01*
X3356518Y-16125499D01*
X3364231Y-16124277D01*
X3364237Y-16124277D01*
X3434831Y-16113097D01*
X3434834Y-16113096D01*
X3450304Y-16110646D01*
X3464260Y-16103535D01*
X3464263Y-16103534D01*
X3549388Y-16060160D01*
X3563342Y-16053050D01*
X3653050Y-15963342D01*
X3710646Y-15850304D01*
X3725500Y-15756519D01*
X3725499Y-14193482D01*
X3722493Y-14174500D01*
X3713097Y-14115169D01*
X3713096Y-14115166D01*
X3710646Y-14099696D01*
X3693398Y-14065844D01*
X3653050Y-13986658D01*
X3655122Y-13985603D01*
X3628697Y-13923776D01*
X3625500Y-13888248D01*
X3625500Y-9834465D01*
X3625511Y-9832381D01*
X3626325Y-9754715D01*
X3626325Y-9754711D01*
X3626441Y-9743593D01*
X3624017Y-9732381D01*
X3618166Y-9705315D01*
X3614912Y-9685449D01*
X3611786Y-9657584D01*
X3610546Y-9646528D01*
X3601121Y-9619462D01*
X3594545Y-9596069D01*
X3590841Y-9578935D01*
X3590840Y-9578931D01*
X3588489Y-9568058D01*
X3571939Y-9532566D01*
X3564365Y-9513913D01*
X3555144Y-9487434D01*
X3551485Y-9476927D01*
X3539643Y-9457975D01*
X3536297Y-9452621D01*
X3524702Y-9431265D01*
X3517294Y-9415379D01*
X3512591Y-9405293D01*
X3488590Y-9374352D01*
X3477068Y-9357835D01*
X3462213Y-9334061D01*
X3462209Y-9334056D01*
X3456316Y-9324625D01*
X3448478Y-9316732D01*
X3448474Y-9316727D01*
X3427814Y-9295922D01*
X3427463Y-9295547D01*
X3426901Y-9294823D01*
X3401388Y-9269310D01*
X3400898Y-9268819D01*
X3389987Y-9257832D01*
X3329770Y-9197193D01*
X3328671Y-9196496D01*
X3327719Y-9195641D01*
X2782135Y-8650057D01*
X2735016Y-8575069D01*
X2724606Y-8492001D01*
X2730468Y-8425000D01*
X2716683Y-8267432D01*
X2711392Y-8206960D01*
X2711392Y-8206959D01*
X2710635Y-8198308D01*
X2708388Y-8189923D01*
X2708387Y-8189916D01*
X2653989Y-7986901D01*
X2651739Y-7978504D01*
X2555568Y-7772266D01*
X2471142Y-7651692D01*
X2430031Y-7592978D01*
X2430027Y-7592973D01*
X2425047Y-7585861D01*
X2264139Y-7424953D01*
X2257027Y-7419973D01*
X2257022Y-7419969D01*
X2084852Y-7299416D01*
X2077734Y-7294432D01*
X1871496Y-7198261D01*
X1837538Y-7189162D01*
X1660084Y-7141613D01*
X1660077Y-7141612D01*
X1651692Y-7139365D01*
X1643041Y-7138608D01*
X1643040Y-7138608D01*
X1433653Y-7120289D01*
X1425000Y-7119532D01*
X1416347Y-7120289D01*
X1206960Y-7138608D01*
X1206959Y-7138608D01*
X1198308Y-7139365D01*
X1189923Y-7141612D01*
X1189916Y-7141613D01*
X1012462Y-7189162D01*
X978504Y-7198261D01*
X772266Y-7294432D01*
X765152Y-7299413D01*
X765142Y-7299419D01*
X738640Y-7317976D01*
X656608Y-7351357D01*
X568217Y-7345839D01*
X490973Y-7302516D01*
X440176Y-7229969D01*
X425500Y-7154964D01*
X425500Y-3673321D01*
X445207Y-3586978D01*
X483786Y-3532607D01*
X3532606Y-483786D01*
X3607594Y-436667D01*
X3673320Y-425500D01*
X31176679Y-425500D01*
X31263022Y-445207D01*
G37*
%TD.AperFunction*%
M02*
