%TF.GenerationSoftware,KiCad,Pcbnew,(6.0.7)*%
%TF.CreationDate,2022-09-30T15:53:47-07:00*%
%TF.ProjectId,companion,636f6d70-616e-4696-9f6e-2e6b69636164,rev?*%
%TF.SameCoordinates,Original*%
%TF.FileFunction,Legend,Bot*%
%TF.FilePolarity,Positive*%
%FSLAX46Y46*%
G04 Gerber Fmt 4.6, Leading zero omitted, Abs format (unit mm)*
G04 Created by KiCad (PCBNEW (6.0.7)) date 2022-09-30 15:53:47*
%MOMM*%
%LPD*%
G01*
G04 APERTURE LIST*
G04 Aperture macros list*
%AMRoundRect*
0 Rectangle with rounded corners*
0 $1 Rounding radius*
0 $2 $3 $4 $5 $6 $7 $8 $9 X,Y pos of 4 corners*
0 Add a 4 corners polygon primitive as box body*
4,1,4,$2,$3,$4,$5,$6,$7,$8,$9,$2,$3,0*
0 Add four circle primitives for the rounded corners*
1,1,$1+$1,$2,$3*
1,1,$1+$1,$4,$5*
1,1,$1+$1,$6,$7*
1,1,$1+$1,$8,$9*
0 Add four rect primitives between the rounded corners*
20,1,$1+$1,$2,$3,$4,$5,0*
20,1,$1+$1,$4,$5,$6,$7,0*
20,1,$1+$1,$6,$7,$8,$9,0*
20,1,$1+$1,$8,$9,$2,$3,0*%
G04 Aperture macros list end*
%ADD10C,0.400000*%
%ADD11C,0.150000*%
%ADD12C,0.120000*%
%ADD13C,4.800000*%
%ADD14RoundRect,0.050000X-0.500000X1.255000X-0.500000X-1.255000X0.500000X-1.255000X0.500000X1.255000X0*%
%ADD15RoundRect,0.050000X-0.176777X-0.883883X0.883883X0.176777X0.176777X0.883883X-0.883883X-0.176777X0*%
%ADD16RoundRect,0.050000X0.176777X0.883883X-0.883883X-0.176777X-0.176777X-0.883883X0.883883X0.176777X0*%
%ADD17RoundRect,0.050000X-0.883883X0.176777X0.176777X-0.883883X0.883883X-0.176777X-0.176777X0.883883X0*%
%ADD18RoundRect,0.050000X0.883883X-0.176777X-0.176777X0.883883X-0.883883X0.176777X0.176777X-0.883883X0*%
G04 APERTURE END LIST*
D10*
G36*
X17468754Y-5116467D02*
G01*
X17468754Y-5185903D01*
X17434469Y-5182303D01*
X17400183Y-5178703D01*
X17343041Y-5155645D01*
X17343041Y-5155628D01*
X17285899Y-5132570D01*
X17285899Y-5002271D01*
X17468754Y-5116467D01*
G37*
X17468754Y-5116467D02*
X17468754Y-5185903D01*
X17434469Y-5182303D01*
X17400183Y-5178703D01*
X17343041Y-5155645D01*
X17343041Y-5155628D01*
X17285899Y-5132570D01*
X17285899Y-5002271D01*
X17468754Y-5116467D01*
G36*
X17240185Y-5185920D02*
G01*
X17289118Y-5277348D01*
X17194473Y-5277348D01*
X17194469Y-5212570D01*
X17194469Y-5147807D01*
X17137327Y-5124750D01*
X17080185Y-5101692D01*
X17191253Y-5094492D01*
X17240185Y-5185920D01*
G37*
X17240185Y-5185920D02*
X17289118Y-5277348D01*
X17194473Y-5277348D01*
X17194469Y-5212570D01*
X17194469Y-5147807D01*
X17137327Y-5124750D01*
X17080185Y-5101692D01*
X17191253Y-5094492D01*
X17240185Y-5185920D01*
G36*
X17291296Y-5460176D02*
G01*
X17231456Y-5460800D01*
X17171613Y-5461424D01*
X17062635Y-5490588D01*
X16953657Y-5519754D01*
X16974971Y-5455680D01*
X16974971Y-5455692D01*
X16996284Y-5391616D01*
X17243189Y-5382336D01*
X17291296Y-5460176D01*
G37*
X17291296Y-5460176D02*
X17231456Y-5460800D01*
X17171613Y-5461424D01*
X17062635Y-5490588D01*
X16953657Y-5519754D01*
X16974971Y-5455680D01*
X16974971Y-5455692D01*
X16996284Y-5391616D01*
X17243189Y-5382336D01*
X17291296Y-5460176D01*
G36*
X16938456Y-5772770D02*
G01*
X16964870Y-5815506D01*
X16783043Y-5863054D01*
X16783041Y-5850078D01*
X16783041Y-5837098D01*
X16847542Y-5783566D01*
X16912044Y-5730033D01*
X16938456Y-5772770D01*
G37*
X16938456Y-5772770D02*
X16964870Y-5815506D01*
X16783043Y-5863054D01*
X16783041Y-5850078D01*
X16783041Y-5837098D01*
X16847542Y-5783566D01*
X16912044Y-5730033D01*
X16938456Y-5772770D01*
G36*
X16988756Y-6327360D02*
G01*
X16897328Y-6327360D01*
X16828755Y-6283046D01*
X16760183Y-6238732D01*
X16851612Y-6238732D01*
X16988756Y-6327360D01*
G37*
X16988756Y-6327360D02*
X16897328Y-6327360D01*
X16828755Y-6283046D01*
X16760183Y-6238732D01*
X16851612Y-6238732D01*
X16988756Y-6327360D01*
G36*
X16459048Y-6788833D02*
G01*
X16407544Y-6923049D01*
X16371612Y-6923049D01*
X16371612Y-6734793D01*
X16459048Y-6788833D01*
G37*
X16459048Y-6788833D02*
X16407544Y-6923049D01*
X16371612Y-6923049D01*
X16371612Y-6734793D01*
X16459048Y-6788833D01*
G36*
X33650922Y-16625903D02*
G01*
X33651620Y-16751617D01*
X33560181Y-16751617D01*
X33560881Y-16694475D01*
X33560883Y-16694475D01*
X33561583Y-16637333D01*
X33605902Y-16568760D01*
X33650222Y-16500188D01*
X33650922Y-16625903D01*
G37*
X33650922Y-16625903D02*
X33651620Y-16751617D01*
X33560181Y-16751617D01*
X33560881Y-16694475D01*
X33560883Y-16694475D01*
X33561583Y-16637333D01*
X33605902Y-16568760D01*
X33650222Y-16500188D01*
X33650922Y-16625903D01*
G36*
X17511670Y-7754700D02*
G01*
X17794900Y-8180170D01*
X17781920Y-8454455D01*
X17768941Y-8728741D01*
X18162453Y-9140170D01*
X18368642Y-9452239D01*
X18574830Y-9764309D01*
X18794137Y-10229382D01*
X19013444Y-10694456D01*
X19130372Y-11151599D01*
X19247302Y-11608741D01*
X19323613Y-12134456D01*
X19399922Y-12660170D01*
X19376000Y-13300171D01*
X19352078Y-13940171D01*
X19127526Y-14671599D01*
X19004624Y-14940449D01*
X18881724Y-15209301D01*
X19100945Y-15026449D01*
X19320161Y-14843573D01*
X19673012Y-14613789D01*
X20025864Y-14384004D01*
X20880334Y-13965578D01*
X21427323Y-13782693D01*
X21974312Y-13599810D01*
X22292952Y-13553762D01*
X22611590Y-13507714D01*
X23068732Y-13507701D01*
X23525876Y-13507688D01*
X24521516Y-13640192D01*
X24937979Y-13758666D01*
X25354447Y-13877140D01*
X25661128Y-14028577D01*
X25967810Y-14180015D01*
X26049710Y-14124181D01*
X26131591Y-14068348D01*
X26434432Y-14009908D01*
X26580172Y-14075476D01*
X26725892Y-14141044D01*
X26894414Y-14276500D01*
X26952574Y-14445684D01*
X27010735Y-14614868D01*
X26936413Y-14945903D01*
X26778313Y-15091134D01*
X26620213Y-15236364D01*
X26291573Y-15327104D01*
X26139613Y-15285144D01*
X25987652Y-15243185D01*
X25891232Y-15140258D01*
X25794812Y-15037332D01*
X25745232Y-14906454D01*
X25695632Y-14775575D01*
X25433608Y-14806423D01*
X25171582Y-14837268D01*
X24828725Y-14931230D01*
X24485869Y-15025192D01*
X24038657Y-15221748D01*
X23591447Y-15418304D01*
X23245022Y-15634220D01*
X22898600Y-15850135D01*
X22549376Y-16126744D01*
X22200154Y-16403352D01*
X21937297Y-16653015D01*
X21674441Y-16902676D01*
X21674441Y-16964032D01*
X22348725Y-16963438D01*
X23023011Y-16962844D01*
X23800156Y-17219500D01*
X24074443Y-17357191D01*
X24348727Y-17494880D01*
X24677260Y-17827962D01*
X25005793Y-18161045D01*
X25211665Y-18587757D01*
X25417538Y-19014469D01*
X25578900Y-19608753D01*
X25580901Y-20312713D01*
X25582902Y-21016674D01*
X25737181Y-21170991D01*
X25891461Y-21325309D01*
X25869401Y-21554882D01*
X25847340Y-21784456D01*
X25721181Y-21916135D01*
X25595021Y-22047815D01*
X25323823Y-22160135D01*
X25157742Y-22118715D01*
X24991683Y-22077295D01*
X24883223Y-21917295D01*
X24774743Y-21757295D01*
X24794743Y-21542751D01*
X24814744Y-21328207D01*
X24901704Y-21204910D01*
X24988663Y-21081613D01*
X25073903Y-20966375D01*
X24916997Y-20706619D01*
X24760096Y-20446855D01*
X24536212Y-20216528D01*
X24312331Y-19986198D01*
X24113311Y-19898162D01*
X23914290Y-19810127D01*
X23476416Y-19758266D01*
X23203969Y-19813932D01*
X22931523Y-19869598D01*
X22219529Y-20237842D01*
X21991496Y-20442863D01*
X21763465Y-20647884D01*
X21645859Y-20848564D01*
X21528254Y-21049244D01*
X21285815Y-21102657D01*
X21148673Y-21144645D01*
X21011531Y-21186634D01*
X20754525Y-21380540D01*
X20497517Y-21574440D01*
X20097245Y-21926521D01*
X19214631Y-22790557D01*
X18332017Y-23654592D01*
X18064641Y-23836172D01*
X17797267Y-24017751D01*
X17385403Y-24224256D01*
X16973540Y-24430761D01*
X16706821Y-24502620D01*
X16440102Y-24574480D01*
X15754388Y-24610479D01*
X15228674Y-24522440D01*
X15228755Y-24522567D01*
X14703041Y-24434528D01*
X14040184Y-24359089D01*
X13377327Y-24283649D01*
X13138431Y-24194768D01*
X12899536Y-24105888D01*
X12568697Y-23723049D01*
X12073316Y-22717334D01*
X11577936Y-21711620D01*
X11481236Y-21464576D01*
X11384536Y-21217531D01*
X11272776Y-20778862D01*
X11161016Y-20340192D01*
X11161565Y-19837335D01*
X11293901Y-19276170D01*
X11405247Y-19031036D01*
X11516593Y-18785904D01*
X11799529Y-18145902D01*
X12082464Y-17505903D01*
X12193875Y-17174545D01*
X12305286Y-16843186D01*
X12373847Y-16397402D01*
X12442407Y-15951617D01*
X12494320Y-15596108D01*
X12546232Y-15240599D01*
X12495744Y-15076095D01*
X12445257Y-14911591D01*
X12650615Y-14700306D01*
X12855974Y-14489021D01*
X12979522Y-14237463D01*
X13103040Y-13985903D01*
X13097635Y-13460188D01*
X13092230Y-12934475D01*
X12987748Y-12661605D01*
X12883265Y-12388736D01*
X12417327Y-11928760D01*
X11960185Y-11769720D01*
X11823043Y-11762780D01*
X11685900Y-11755840D01*
X11348792Y-11768760D01*
X11373954Y-11923812D01*
X11399115Y-12078865D01*
X11345172Y-12242317D01*
X11291228Y-12405769D01*
X11155790Y-12519731D01*
X11020354Y-12633695D01*
X10866380Y-12662581D01*
X10712407Y-12691467D01*
X10503232Y-12598939D01*
X10294056Y-12506410D01*
X10109104Y-12203046D01*
X10108921Y-12004387D01*
X10108738Y-11805725D01*
X10258274Y-11552581D01*
X10529445Y-11392397D01*
X10908737Y-11398037D01*
X11297309Y-11243939D01*
X11685880Y-11089841D01*
X12463024Y-10907505D01*
X12828738Y-10857697D01*
X13194452Y-10807890D01*
X13605880Y-10859150D01*
X13880165Y-10896110D01*
X14085879Y-10967758D01*
X14291593Y-11039407D01*
X14565879Y-11179825D01*
X14840164Y-11320242D01*
X15157242Y-11579255D01*
X15474321Y-11838267D01*
X15663768Y-12115101D01*
X15853216Y-12391936D01*
X16205200Y-13462000D01*
X16270416Y-13391608D01*
X16501425Y-12865894D01*
X16732432Y-12340180D01*
X16916244Y-11768752D01*
X17100054Y-11197323D01*
X17238810Y-10603037D01*
X17239486Y-10131852D01*
X17240163Y-9660666D01*
X17143599Y-9277170D01*
X16945297Y-9269490D01*
X16746993Y-9261810D01*
X16609043Y-9190475D01*
X16471093Y-9119139D01*
X16285369Y-8883027D01*
X16231429Y-8719591D01*
X16177491Y-8556155D01*
X16204817Y-8325424D01*
X16232142Y-8094693D01*
X16488166Y-7778365D01*
X16646308Y-7693553D01*
X16804450Y-7608740D01*
X17146882Y-7608740D01*
X17511670Y-7754700D01*
G37*
X17511670Y-7754700D02*
X17794900Y-8180170D01*
X17781920Y-8454455D01*
X17768941Y-8728741D01*
X18162453Y-9140170D01*
X18368642Y-9452239D01*
X18574830Y-9764309D01*
X18794137Y-10229382D01*
X19013444Y-10694456D01*
X19130372Y-11151599D01*
X19247302Y-11608741D01*
X19323613Y-12134456D01*
X19399922Y-12660170D01*
X19376000Y-13300171D01*
X19352078Y-13940171D01*
X19127526Y-14671599D01*
X19004624Y-14940449D01*
X18881724Y-15209301D01*
X19100945Y-15026449D01*
X19320161Y-14843573D01*
X19673012Y-14613789D01*
X20025864Y-14384004D01*
X20880334Y-13965578D01*
X21427323Y-13782693D01*
X21974312Y-13599810D01*
X22292952Y-13553762D01*
X22611590Y-13507714D01*
X23068732Y-13507701D01*
X23525876Y-13507688D01*
X24521516Y-13640192D01*
X24937979Y-13758666D01*
X25354447Y-13877140D01*
X25661128Y-14028577D01*
X25967810Y-14180015D01*
X26049710Y-14124181D01*
X26131591Y-14068348D01*
X26434432Y-14009908D01*
X26580172Y-14075476D01*
X26725892Y-14141044D01*
X26894414Y-14276500D01*
X26952574Y-14445684D01*
X27010735Y-14614868D01*
X26936413Y-14945903D01*
X26778313Y-15091134D01*
X26620213Y-15236364D01*
X26291573Y-15327104D01*
X26139613Y-15285144D01*
X25987652Y-15243185D01*
X25891232Y-15140258D01*
X25794812Y-15037332D01*
X25745232Y-14906454D01*
X25695632Y-14775575D01*
X25433608Y-14806423D01*
X25171582Y-14837268D01*
X24828725Y-14931230D01*
X24485869Y-15025192D01*
X24038657Y-15221748D01*
X23591447Y-15418304D01*
X23245022Y-15634220D01*
X22898600Y-15850135D01*
X22549376Y-16126744D01*
X22200154Y-16403352D01*
X21937297Y-16653015D01*
X21674441Y-16902676D01*
X21674441Y-16964032D01*
X22348725Y-16963438D01*
X23023011Y-16962844D01*
X23800156Y-17219500D01*
X24074443Y-17357191D01*
X24348727Y-17494880D01*
X24677260Y-17827962D01*
X25005793Y-18161045D01*
X25211665Y-18587757D01*
X25417538Y-19014469D01*
X25578900Y-19608753D01*
X25580901Y-20312713D01*
X25582902Y-21016674D01*
X25737181Y-21170991D01*
X25891461Y-21325309D01*
X25869401Y-21554882D01*
X25847340Y-21784456D01*
X25721181Y-21916135D01*
X25595021Y-22047815D01*
X25323823Y-22160135D01*
X25157742Y-22118715D01*
X24991683Y-22077295D01*
X24883223Y-21917295D01*
X24774743Y-21757295D01*
X24794743Y-21542751D01*
X24814744Y-21328207D01*
X24901704Y-21204910D01*
X24988663Y-21081613D01*
X25073903Y-20966375D01*
X24916997Y-20706619D01*
X24760096Y-20446855D01*
X24536212Y-20216528D01*
X24312331Y-19986198D01*
X24113311Y-19898162D01*
X23914290Y-19810127D01*
X23476416Y-19758266D01*
X23203969Y-19813932D01*
X22931523Y-19869598D01*
X22219529Y-20237842D01*
X21991496Y-20442863D01*
X21763465Y-20647884D01*
X21645859Y-20848564D01*
X21528254Y-21049244D01*
X21285815Y-21102657D01*
X21148673Y-21144645D01*
X21011531Y-21186634D01*
X20754525Y-21380540D01*
X20497517Y-21574440D01*
X20097245Y-21926521D01*
X19214631Y-22790557D01*
X18332017Y-23654592D01*
X18064641Y-23836172D01*
X17797267Y-24017751D01*
X17385403Y-24224256D01*
X16973540Y-24430761D01*
X16706821Y-24502620D01*
X16440102Y-24574480D01*
X15754388Y-24610479D01*
X15228674Y-24522440D01*
X15228755Y-24522567D01*
X14703041Y-24434528D01*
X14040184Y-24359089D01*
X13377327Y-24283649D01*
X13138431Y-24194768D01*
X12899536Y-24105888D01*
X12568697Y-23723049D01*
X12073316Y-22717334D01*
X11577936Y-21711620D01*
X11481236Y-21464576D01*
X11384536Y-21217531D01*
X11272776Y-20778862D01*
X11161016Y-20340192D01*
X11161565Y-19837335D01*
X11293901Y-19276170D01*
X11405247Y-19031036D01*
X11516593Y-18785904D01*
X11799529Y-18145902D01*
X12082464Y-17505903D01*
X12193875Y-17174545D01*
X12305286Y-16843186D01*
X12373847Y-16397402D01*
X12442407Y-15951617D01*
X12494320Y-15596108D01*
X12546232Y-15240599D01*
X12495744Y-15076095D01*
X12445257Y-14911591D01*
X12650615Y-14700306D01*
X12855974Y-14489021D01*
X12979522Y-14237463D01*
X13103040Y-13985903D01*
X13097635Y-13460188D01*
X13092230Y-12934475D01*
X12987748Y-12661605D01*
X12883265Y-12388736D01*
X12417327Y-11928760D01*
X11960185Y-11769720D01*
X11823043Y-11762780D01*
X11685900Y-11755840D01*
X11348792Y-11768760D01*
X11373954Y-11923812D01*
X11399115Y-12078865D01*
X11345172Y-12242317D01*
X11291228Y-12405769D01*
X11155790Y-12519731D01*
X11020354Y-12633695D01*
X10866380Y-12662581D01*
X10712407Y-12691467D01*
X10503232Y-12598939D01*
X10294056Y-12506410D01*
X10109104Y-12203046D01*
X10108921Y-12004387D01*
X10108738Y-11805725D01*
X10258274Y-11552581D01*
X10529445Y-11392397D01*
X10908737Y-11398037D01*
X11297309Y-11243939D01*
X11685880Y-11089841D01*
X12463024Y-10907505D01*
X12828738Y-10857697D01*
X13194452Y-10807890D01*
X13605880Y-10859150D01*
X13880165Y-10896110D01*
X14085879Y-10967758D01*
X14291593Y-11039407D01*
X14565879Y-11179825D01*
X14840164Y-11320242D01*
X15157242Y-11579255D01*
X15474321Y-11838267D01*
X15663768Y-12115101D01*
X15853216Y-12391936D01*
X16205200Y-13462000D01*
X16270416Y-13391608D01*
X16501425Y-12865894D01*
X16732432Y-12340180D01*
X16916244Y-11768752D01*
X17100054Y-11197323D01*
X17238810Y-10603037D01*
X17239486Y-10131852D01*
X17240163Y-9660666D01*
X17143599Y-9277170D01*
X16945297Y-9269490D01*
X16746993Y-9261810D01*
X16609043Y-9190475D01*
X16471093Y-9119139D01*
X16285369Y-8883027D01*
X16231429Y-8719591D01*
X16177491Y-8556155D01*
X16204817Y-8325424D01*
X16232142Y-8094693D01*
X16488166Y-7778365D01*
X16646308Y-7693553D01*
X16804450Y-7608740D01*
X17146882Y-7608740D01*
X17511670Y-7754700D01*
G36*
X8145912Y-13003047D02*
G01*
X8198540Y-13140191D01*
X8097328Y-13140191D01*
X8097328Y-13048763D01*
X7955168Y-13048763D01*
X7760011Y-12957332D01*
X8051612Y-12957332D01*
X8143040Y-12957332D01*
X8143040Y-12917013D01*
X8097326Y-12888760D01*
X8051612Y-12860508D01*
X8051612Y-12957332D01*
X7760011Y-12957332D01*
X7740534Y-12948207D01*
X7553340Y-12860508D01*
X7525899Y-12847651D01*
X7503040Y-12844071D01*
X7480182Y-12840491D01*
X7428480Y-12821587D01*
X8440183Y-12821587D01*
X8508755Y-12865902D01*
X8577327Y-12910216D01*
X8588747Y-12910916D01*
X8600167Y-12911615D01*
X8600167Y-12865901D01*
X8600183Y-12865903D01*
X8600183Y-12820189D01*
X8440183Y-12821587D01*
X7428480Y-12821587D01*
X7240183Y-12752740D01*
X7000183Y-12664990D01*
X7000183Y-12591623D01*
X6866143Y-12591623D01*
X6716021Y-12527569D01*
X6565899Y-12463519D01*
X6228564Y-12321859D01*
X5891230Y-12180199D01*
X5781238Y-12180199D01*
X5682634Y-12477343D01*
X5213791Y-13757344D01*
X4895775Y-15128772D01*
X4810406Y-15677343D01*
X4737326Y-16454486D01*
X4747206Y-18694488D01*
X5033790Y-20350086D01*
X5268234Y-21122287D01*
X5502678Y-21894489D01*
X5839379Y-22643329D01*
X6176079Y-23392168D01*
X6595094Y-24083330D01*
X7014110Y-24774490D01*
X7437654Y-25300205D01*
X7861199Y-25825920D01*
X8150701Y-26132066D01*
X8440203Y-26438211D01*
X8965917Y-26928199D01*
X9491632Y-27418184D01*
X10040203Y-27828540D01*
X10588774Y-28238895D01*
X11204686Y-28580892D01*
X11820597Y-28922891D01*
X11913257Y-28982912D01*
X12005917Y-29042932D01*
X12820462Y-29364759D01*
X13635007Y-29686582D01*
X15205916Y-30092359D01*
X16705868Y-30288721D01*
X17705287Y-30284921D01*
X18704705Y-30281122D01*
X19492453Y-30169101D01*
X20280202Y-30057081D01*
X21034487Y-29852190D01*
X21788773Y-29647300D01*
X22543059Y-29341184D01*
X23297345Y-29035070D01*
X24020592Y-28625969D01*
X24743838Y-28216865D01*
X25369162Y-27745664D01*
X25994488Y-27274467D01*
X26658919Y-26618848D01*
X27323352Y-25963228D01*
X27559912Y-25643228D01*
X27782111Y-25414667D01*
X28056784Y-25071809D01*
X28331458Y-24728954D01*
X28764888Y-23997524D01*
X29198319Y-23266096D01*
X29281480Y-23083236D01*
X29364640Y-22900377D01*
X29628997Y-22283233D01*
X29893351Y-21666092D01*
X30092551Y-20843235D01*
X30199530Y-20477520D01*
X30306510Y-20111805D01*
X30538588Y-18603233D01*
X30567908Y-17917518D01*
X30597228Y-17231804D01*
X30613827Y-17123027D01*
X30630427Y-17014253D01*
X30588366Y-16665886D01*
X30546305Y-16317518D01*
X30452105Y-15209404D01*
X30266104Y-14414890D01*
X30080104Y-13620376D01*
X29782502Y-12820376D01*
X29484898Y-12020376D01*
X29094159Y-11288772D01*
X28703303Y-10557332D01*
X28223883Y-9871617D01*
X27744466Y-9185903D01*
X27365906Y-8784059D01*
X27434487Y-8808141D01*
X27503047Y-8832225D01*
X30222501Y-10593349D01*
X32941954Y-12354474D01*
X33018075Y-12575903D01*
X33094195Y-12797333D01*
X33554522Y-14808762D01*
X33615443Y-15593611D01*
X32673524Y-17065261D01*
X31731612Y-18536911D01*
X31731612Y-18572872D01*
X31503039Y-18904668D01*
X31274468Y-19236465D01*
X31274468Y-19316848D01*
X31851599Y-19956146D01*
X32428729Y-20595445D01*
X32408009Y-20616155D01*
X32387309Y-20636865D01*
X31755810Y-20498840D01*
X31124312Y-20360815D01*
X31101412Y-20383722D01*
X31078513Y-20406629D01*
X31393235Y-20761978D01*
X31707955Y-21117328D01*
X31731215Y-21140186D01*
X31754475Y-21163042D01*
X32074475Y-21528635D01*
X32394475Y-21894229D01*
X32489054Y-21999250D01*
X32583634Y-22104271D01*
X32684476Y-21882949D01*
X32868476Y-21408701D01*
X33052476Y-20934454D01*
X33066275Y-20869930D01*
X33080075Y-20805406D01*
X32965794Y-20774456D01*
X32851514Y-20743505D01*
X32864913Y-20678981D01*
X32878312Y-20614458D01*
X33219279Y-19757188D01*
X33560248Y-18899919D01*
X33560248Y-18820432D01*
X33380488Y-18791687D01*
X33200728Y-18762941D01*
X33384148Y-18317272D01*
X33567569Y-17871603D01*
X33609568Y-17780174D01*
X33651549Y-17688745D01*
X33634148Y-18511602D01*
X33616748Y-19334459D01*
X33334586Y-20980173D01*
X33124636Y-21688745D01*
X32914687Y-22397316D01*
X32880587Y-22431915D01*
X32846488Y-22466514D01*
X32744868Y-22329053D01*
X32643248Y-22191593D01*
X32561888Y-22191593D01*
X32485968Y-22420166D01*
X32410048Y-22648738D01*
X32268447Y-22648738D01*
X31954354Y-22535444D01*
X31640252Y-22422144D01*
X31640252Y-22472444D01*
X31968329Y-22857740D01*
X32296408Y-23243036D01*
X32359450Y-23243036D01*
X32449731Y-23005464D01*
X32540011Y-22767891D01*
X32583432Y-22753490D01*
X32626853Y-22739090D01*
X32787974Y-22856891D01*
X32643075Y-23166551D01*
X32498175Y-23476213D01*
X32341654Y-23334573D01*
X32098546Y-23961895D01*
X31855439Y-24589214D01*
X31845238Y-24681913D01*
X31835038Y-24774612D01*
X31829238Y-24823291D01*
X31823437Y-24871992D01*
X31533536Y-25326160D01*
X31243632Y-25780328D01*
X30662884Y-26689012D01*
X30082135Y-27597696D01*
X29603089Y-28162366D01*
X28863934Y-28884311D01*
X28124778Y-29606256D01*
X27311249Y-30215446D01*
X26497721Y-30824638D01*
X25606293Y-31335393D01*
X24714865Y-31846149D01*
X24052006Y-32111446D01*
X23389149Y-32376745D01*
X23114865Y-32499305D01*
X22840579Y-32621866D01*
X22634865Y-32657705D01*
X22429150Y-32693544D01*
X20836804Y-33122892D01*
X20037068Y-33234453D01*
X19236935Y-33345903D01*
X17609988Y-33340704D01*
X15983041Y-33335502D01*
X15343040Y-33251314D01*
X14703040Y-33167293D01*
X14200183Y-33048812D01*
X13697325Y-32930332D01*
X12737326Y-32703052D01*
X11745650Y-32312917D01*
X10753974Y-31922762D01*
X10397078Y-31705354D01*
X10040184Y-31487949D01*
X8934490Y-30769229D01*
X7828798Y-30050512D01*
X7963026Y-29766779D01*
X8097254Y-29483047D01*
X8097291Y-29406168D01*
X8097310Y-29363975D01*
X8271754Y-29363975D01*
X8303984Y-29416135D01*
X8336214Y-29468275D01*
X8370530Y-29430015D01*
X8404846Y-29391735D01*
X8457007Y-29235633D01*
X8509167Y-29079654D01*
X8483847Y-29054454D01*
X8377801Y-29209215D01*
X8271754Y-29363975D01*
X8097310Y-29363975D01*
X8097326Y-29329288D01*
X7831783Y-29140209D01*
X7683026Y-29140209D01*
X7656712Y-29208789D01*
X7630398Y-29277370D01*
X7558126Y-29277370D01*
X7564866Y-29132265D01*
X7571612Y-28987114D01*
X6436345Y-28249162D01*
X5301078Y-27511213D01*
X5155436Y-27395004D01*
X5009794Y-27278793D01*
X4742068Y-26938678D01*
X4474342Y-26598568D01*
X3942111Y-25732235D01*
X3409879Y-24865903D01*
X2989548Y-23928760D01*
X2569218Y-22991617D01*
X2270228Y-22008760D01*
X1971237Y-21025903D01*
X1811425Y-20077749D01*
X1651612Y-19129596D01*
X1651612Y-15755590D01*
X1699825Y-15282175D01*
X1748037Y-14808760D01*
X1901630Y-14121447D01*
X2055222Y-13434136D01*
X2987178Y-11972876D01*
X3919134Y-10511617D01*
X4000192Y-10388752D01*
X4081251Y-10265887D01*
X3778432Y-10074640D01*
X3475614Y-9883392D01*
X3489328Y-9826377D01*
X3503042Y-9769361D01*
X5103042Y-7279941D01*
X5444750Y-6884351D01*
X5786458Y-6488760D01*
X6021810Y-6237331D01*
X6257163Y-5985903D01*
X6365816Y-5871348D01*
X6474469Y-5756794D01*
X7435375Y-4934474D01*
X7523697Y-4865903D01*
X7612020Y-4797332D01*
X7572556Y-4865903D01*
X7533092Y-4934475D01*
X4652578Y-9414475D01*
X4123042Y-10236925D01*
X4178756Y-10290181D01*
X4234469Y-10343436D01*
X5167668Y-10942857D01*
X6100866Y-11542279D01*
X6320793Y-11118376D01*
X6540720Y-10694475D01*
X6599023Y-10594578D01*
X6657326Y-10494682D01*
X7074615Y-9886007D01*
X7491904Y-9277331D01*
X8057472Y-8648994D01*
X8623040Y-8020656D01*
X9811612Y-7003324D01*
X10497327Y-6545304D01*
X10904627Y-6273249D01*
X16268735Y-6273249D01*
X16331294Y-6374473D01*
X16409850Y-6374473D01*
X16483326Y-6346279D01*
X16556803Y-6318083D01*
X16504326Y-6254851D01*
X16451848Y-6191618D01*
X16567500Y-6052266D01*
X16516164Y-6000929D01*
X16463225Y-6099845D01*
X16410287Y-6198762D01*
X16462466Y-6334737D01*
X16365600Y-6303993D01*
X16268735Y-6273249D01*
X10904627Y-6273249D01*
X11183040Y-6087284D01*
X11820282Y-5780189D01*
X16366216Y-5780189D01*
X16422722Y-5871617D01*
X16463041Y-5871617D01*
X16463041Y-5780189D01*
X16366216Y-5780189D01*
X11820282Y-5780189D01*
X11968229Y-5708891D01*
X12753417Y-5330498D01*
X13078726Y-5225725D01*
X13404034Y-5120953D01*
X13646825Y-4643772D01*
X17263041Y-4643772D01*
X17445897Y-4722348D01*
X17468737Y-4728788D01*
X17468754Y-4683046D01*
X17468754Y-4637332D01*
X17365899Y-4640552D01*
X17263041Y-4643772D01*
X13646825Y-4643772D01*
X13847808Y-4248761D01*
X14017327Y-3952197D01*
X14047053Y-3951909D01*
X14076779Y-3951619D01*
X14131613Y-4180190D01*
X14186448Y-4408762D01*
X14245900Y-4407842D01*
X14302025Y-4301454D01*
X20417327Y-4301454D01*
X20440184Y-4328362D01*
X20463042Y-4355270D01*
X20871520Y-4678382D01*
X20914744Y-4635158D01*
X20848891Y-4574720D01*
X20783042Y-4514286D01*
X20417327Y-4301454D01*
X14302025Y-4301454D01*
X14577260Y-3779730D01*
X14908619Y-3151619D01*
X15235075Y-2557333D01*
X15374695Y-2305905D01*
X15514314Y-2054476D01*
X15553714Y-2011410D01*
X15596243Y-2078657D01*
X15638771Y-2145905D01*
X15642690Y-2305905D01*
X15646610Y-2465905D01*
X15680224Y-2551444D01*
X15713838Y-2636984D01*
X15784795Y-2528587D01*
X15855751Y-2420191D01*
X15976538Y-2181710D01*
X16097326Y-1943230D01*
X16097326Y-1936620D01*
X16188755Y-1936620D01*
X17034469Y-2560600D01*
X17263040Y-2729006D01*
X17491612Y-2897412D01*
X17525898Y-2898801D01*
X17560184Y-2900189D01*
X17567041Y-2740189D01*
X17573901Y-2580189D01*
X17578843Y-2521595D01*
X17628755Y-2521595D01*
X17697327Y-2594309D01*
X17765898Y-2667022D01*
X19228755Y-3765386D01*
X19343039Y-3768760D01*
X19342341Y-3711617D01*
X19341641Y-3654474D01*
X19308055Y-3604633D01*
X19274470Y-3554792D01*
X18520184Y-3075146D01*
X17765898Y-2595499D01*
X17697327Y-2558547D01*
X17628755Y-2521595D01*
X17578843Y-2521595D01*
X17583060Y-2471593D01*
X16946483Y-2069778D01*
X16309927Y-1667963D01*
X16188755Y-1768526D01*
X16188755Y-1936620D01*
X16097326Y-1936620D01*
X16097326Y-1897358D01*
X15598373Y-1528760D01*
X15536977Y-1528760D01*
X15567297Y-1757332D01*
X15597619Y-1985903D01*
X15506098Y-1985903D01*
X15210212Y-1771317D01*
X14914325Y-1556730D01*
X14953335Y-1493612D01*
X15262473Y-1431186D01*
X15571612Y-1368760D01*
X19685897Y-1368760D01*
X20485896Y-1522321D01*
X21285895Y-1675881D01*
X21605895Y-1755076D01*
X21925894Y-1834271D01*
X22771609Y-2109548D01*
X23617324Y-2384826D01*
X24143038Y-2624203D01*
X24668753Y-2863580D01*
X25148753Y-3135470D01*
X25148753Y-3167110D01*
X24388777Y-4347935D01*
X23628802Y-5528760D01*
X23542424Y-5651002D01*
X23456044Y-5773245D01*
X22420094Y-5284601D01*
X22012995Y-5163350D01*
X21605899Y-5042099D01*
X21217326Y-4908676D01*
X20828755Y-4775252D01*
X20087392Y-4638797D01*
X19346030Y-4502342D01*
X18502261Y-4448711D01*
X17658490Y-4395078D01*
X17485252Y-4477284D01*
X17312014Y-4559491D01*
X17502394Y-4629917D01*
X17525159Y-4749001D01*
X17547923Y-4868084D01*
X17508339Y-4892548D01*
X17468754Y-4917012D01*
X17468754Y-4774472D01*
X17377326Y-4774472D01*
X17377326Y-4906221D01*
X17326502Y-4937632D01*
X17275676Y-4969044D01*
X17207156Y-4858172D01*
X17182235Y-4953466D01*
X17157315Y-5048759D01*
X17057326Y-5048759D01*
X17057326Y-4957331D01*
X17154151Y-4957331D01*
X17090386Y-4854163D01*
X17055140Y-4917177D01*
X17019892Y-4980191D01*
X17043938Y-5105905D01*
X17067982Y-5231619D01*
X17148753Y-5231619D01*
X17148753Y-5332831D01*
X17080184Y-5306514D01*
X17011612Y-5280201D01*
X17011612Y-5368761D01*
X16884252Y-5368761D01*
X16832748Y-5502977D01*
X16877212Y-5530457D01*
X16921674Y-5557937D01*
X16895696Y-5599969D01*
X16869720Y-5642001D01*
X16940666Y-5614777D01*
X17011612Y-5587550D01*
X17011612Y-5688761D01*
X16871600Y-5688761D01*
X16818076Y-5549285D01*
X16757560Y-5599509D01*
X16697043Y-5649733D01*
X16747103Y-5780193D01*
X16594783Y-5780193D01*
X16646462Y-5863813D01*
X16531605Y-5910117D01*
X16645890Y-5917317D01*
X16645890Y-6068629D01*
X16813090Y-5917317D01*
X16881098Y-5917317D01*
X16786359Y-6037782D01*
X16691612Y-6158233D01*
X16691612Y-6283045D01*
X16600184Y-6283045D01*
X16600184Y-6384256D01*
X16680184Y-6355907D01*
X16760184Y-6327557D01*
X16646638Y-6416419D01*
X16533092Y-6505279D01*
X16485900Y-6443047D01*
X16280184Y-6435807D01*
X16280184Y-6557351D01*
X16382808Y-6557351D01*
X16334086Y-6616057D01*
X16285364Y-6674765D01*
X16362480Y-7016689D01*
X16320724Y-7176365D01*
X16408008Y-7564837D01*
X16257328Y-7644733D01*
X15754470Y-7745849D01*
X15251612Y-7846982D01*
X14610960Y-8064973D01*
X13970308Y-8282965D01*
X13407373Y-8565156D01*
X12844438Y-8847346D01*
X11777326Y-9544462D01*
X11251612Y-9993184D01*
X10725897Y-10441906D01*
X10288832Y-10933904D01*
X9851768Y-11425903D01*
X9542566Y-11871617D01*
X9233364Y-12317332D01*
X9167122Y-12317332D01*
X9109008Y-12478042D01*
X9050894Y-12638753D01*
X9001332Y-12608122D01*
X8951770Y-12577490D01*
X8976324Y-12618841D01*
X9000876Y-12660191D01*
X8960074Y-12768262D01*
X8919272Y-12876332D01*
X8829092Y-12852749D01*
X8738912Y-12829167D01*
X8831971Y-13003050D01*
X8731931Y-13003050D01*
X8760183Y-13048765D01*
X8788435Y-13094479D01*
X8688663Y-13094479D01*
X8605974Y-13300194D01*
X8600174Y-13094479D01*
X8411928Y-13094479D01*
X8440183Y-13140189D01*
X8468436Y-13185903D01*
X8371612Y-13185903D01*
X8371612Y-13058543D01*
X8346118Y-13048760D01*
X8554469Y-13048760D01*
X8645897Y-13048760D01*
X8645897Y-12957331D01*
X8554469Y-12957331D01*
X8554469Y-13048760D01*
X8346118Y-13048760D01*
X8226992Y-13003047D01*
X8145912Y-13003047D01*
G37*
X8145912Y-13003047D02*
X8198540Y-13140191D01*
X8097328Y-13140191D01*
X8097328Y-13048763D01*
X7955168Y-13048763D01*
X7760011Y-12957332D01*
X8051612Y-12957332D01*
X8143040Y-12957332D01*
X8143040Y-12917013D01*
X8097326Y-12888760D01*
X8051612Y-12860508D01*
X8051612Y-12957332D01*
X7760011Y-12957332D01*
X7740534Y-12948207D01*
X7553340Y-12860508D01*
X7525899Y-12847651D01*
X7503040Y-12844071D01*
X7480182Y-12840491D01*
X7428480Y-12821587D01*
X8440183Y-12821587D01*
X8508755Y-12865902D01*
X8577327Y-12910216D01*
X8588747Y-12910916D01*
X8600167Y-12911615D01*
X8600167Y-12865901D01*
X8600183Y-12865903D01*
X8600183Y-12820189D01*
X8440183Y-12821587D01*
X7428480Y-12821587D01*
X7240183Y-12752740D01*
X7000183Y-12664990D01*
X7000183Y-12591623D01*
X6866143Y-12591623D01*
X6716021Y-12527569D01*
X6565899Y-12463519D01*
X6228564Y-12321859D01*
X5891230Y-12180199D01*
X5781238Y-12180199D01*
X5682634Y-12477343D01*
X5213791Y-13757344D01*
X4895775Y-15128772D01*
X4810406Y-15677343D01*
X4737326Y-16454486D01*
X4747206Y-18694488D01*
X5033790Y-20350086D01*
X5268234Y-21122287D01*
X5502678Y-21894489D01*
X5839379Y-22643329D01*
X6176079Y-23392168D01*
X6595094Y-24083330D01*
X7014110Y-24774490D01*
X7437654Y-25300205D01*
X7861199Y-25825920D01*
X8150701Y-26132066D01*
X8440203Y-26438211D01*
X8965917Y-26928199D01*
X9491632Y-27418184D01*
X10040203Y-27828540D01*
X10588774Y-28238895D01*
X11204686Y-28580892D01*
X11820597Y-28922891D01*
X11913257Y-28982912D01*
X12005917Y-29042932D01*
X12820462Y-29364759D01*
X13635007Y-29686582D01*
X15205916Y-30092359D01*
X16705868Y-30288721D01*
X17705287Y-30284921D01*
X18704705Y-30281122D01*
X19492453Y-30169101D01*
X20280202Y-30057081D01*
X21034487Y-29852190D01*
X21788773Y-29647300D01*
X22543059Y-29341184D01*
X23297345Y-29035070D01*
X24020592Y-28625969D01*
X24743838Y-28216865D01*
X25369162Y-27745664D01*
X25994488Y-27274467D01*
X26658919Y-26618848D01*
X27323352Y-25963228D01*
X27559912Y-25643228D01*
X27782111Y-25414667D01*
X28056784Y-25071809D01*
X28331458Y-24728954D01*
X28764888Y-23997524D01*
X29198319Y-23266096D01*
X29281480Y-23083236D01*
X29364640Y-22900377D01*
X29628997Y-22283233D01*
X29893351Y-21666092D01*
X30092551Y-20843235D01*
X30199530Y-20477520D01*
X30306510Y-20111805D01*
X30538588Y-18603233D01*
X30567908Y-17917518D01*
X30597228Y-17231804D01*
X30613827Y-17123027D01*
X30630427Y-17014253D01*
X30588366Y-16665886D01*
X30546305Y-16317518D01*
X30452105Y-15209404D01*
X30266104Y-14414890D01*
X30080104Y-13620376D01*
X29782502Y-12820376D01*
X29484898Y-12020376D01*
X29094159Y-11288772D01*
X28703303Y-10557332D01*
X28223883Y-9871617D01*
X27744466Y-9185903D01*
X27365906Y-8784059D01*
X27434487Y-8808141D01*
X27503047Y-8832225D01*
X30222501Y-10593349D01*
X32941954Y-12354474D01*
X33018075Y-12575903D01*
X33094195Y-12797333D01*
X33554522Y-14808762D01*
X33615443Y-15593611D01*
X32673524Y-17065261D01*
X31731612Y-18536911D01*
X31731612Y-18572872D01*
X31503039Y-18904668D01*
X31274468Y-19236465D01*
X31274468Y-19316848D01*
X31851599Y-19956146D01*
X32428729Y-20595445D01*
X32408009Y-20616155D01*
X32387309Y-20636865D01*
X31755810Y-20498840D01*
X31124312Y-20360815D01*
X31101412Y-20383722D01*
X31078513Y-20406629D01*
X31393235Y-20761978D01*
X31707955Y-21117328D01*
X31731215Y-21140186D01*
X31754475Y-21163042D01*
X32074475Y-21528635D01*
X32394475Y-21894229D01*
X32489054Y-21999250D01*
X32583634Y-22104271D01*
X32684476Y-21882949D01*
X32868476Y-21408701D01*
X33052476Y-20934454D01*
X33066275Y-20869930D01*
X33080075Y-20805406D01*
X32965794Y-20774456D01*
X32851514Y-20743505D01*
X32864913Y-20678981D01*
X32878312Y-20614458D01*
X33219279Y-19757188D01*
X33560248Y-18899919D01*
X33560248Y-18820432D01*
X33380488Y-18791687D01*
X33200728Y-18762941D01*
X33384148Y-18317272D01*
X33567569Y-17871603D01*
X33609568Y-17780174D01*
X33651549Y-17688745D01*
X33634148Y-18511602D01*
X33616748Y-19334459D01*
X33334586Y-20980173D01*
X33124636Y-21688745D01*
X32914687Y-22397316D01*
X32880587Y-22431915D01*
X32846488Y-22466514D01*
X32744868Y-22329053D01*
X32643248Y-22191593D01*
X32561888Y-22191593D01*
X32485968Y-22420166D01*
X32410048Y-22648738D01*
X32268447Y-22648738D01*
X31954354Y-22535444D01*
X31640252Y-22422144D01*
X31640252Y-22472444D01*
X31968329Y-22857740D01*
X32296408Y-23243036D01*
X32359450Y-23243036D01*
X32449731Y-23005464D01*
X32540011Y-22767891D01*
X32583432Y-22753490D01*
X32626853Y-22739090D01*
X32787974Y-22856891D01*
X32643075Y-23166551D01*
X32498175Y-23476213D01*
X32341654Y-23334573D01*
X32098546Y-23961895D01*
X31855439Y-24589214D01*
X31845238Y-24681913D01*
X31835038Y-24774612D01*
X31829238Y-24823291D01*
X31823437Y-24871992D01*
X31533536Y-25326160D01*
X31243632Y-25780328D01*
X30662884Y-26689012D01*
X30082135Y-27597696D01*
X29603089Y-28162366D01*
X28863934Y-28884311D01*
X28124778Y-29606256D01*
X27311249Y-30215446D01*
X26497721Y-30824638D01*
X25606293Y-31335393D01*
X24714865Y-31846149D01*
X24052006Y-32111446D01*
X23389149Y-32376745D01*
X23114865Y-32499305D01*
X22840579Y-32621866D01*
X22634865Y-32657705D01*
X22429150Y-32693544D01*
X20836804Y-33122892D01*
X20037068Y-33234453D01*
X19236935Y-33345903D01*
X17609988Y-33340704D01*
X15983041Y-33335502D01*
X15343040Y-33251314D01*
X14703040Y-33167293D01*
X14200183Y-33048812D01*
X13697325Y-32930332D01*
X12737326Y-32703052D01*
X11745650Y-32312917D01*
X10753974Y-31922762D01*
X10397078Y-31705354D01*
X10040184Y-31487949D01*
X8934490Y-30769229D01*
X7828798Y-30050512D01*
X7963026Y-29766779D01*
X8097254Y-29483047D01*
X8097291Y-29406168D01*
X8097310Y-29363975D01*
X8271754Y-29363975D01*
X8303984Y-29416135D01*
X8336214Y-29468275D01*
X8370530Y-29430015D01*
X8404846Y-29391735D01*
X8457007Y-29235633D01*
X8509167Y-29079654D01*
X8483847Y-29054454D01*
X8377801Y-29209215D01*
X8271754Y-29363975D01*
X8097310Y-29363975D01*
X8097326Y-29329288D01*
X7831783Y-29140209D01*
X7683026Y-29140209D01*
X7656712Y-29208789D01*
X7630398Y-29277370D01*
X7558126Y-29277370D01*
X7564866Y-29132265D01*
X7571612Y-28987114D01*
X6436345Y-28249162D01*
X5301078Y-27511213D01*
X5155436Y-27395004D01*
X5009794Y-27278793D01*
X4742068Y-26938678D01*
X4474342Y-26598568D01*
X3942111Y-25732235D01*
X3409879Y-24865903D01*
X2989548Y-23928760D01*
X2569218Y-22991617D01*
X2270228Y-22008760D01*
X1971237Y-21025903D01*
X1811425Y-20077749D01*
X1651612Y-19129596D01*
X1651612Y-15755590D01*
X1699825Y-15282175D01*
X1748037Y-14808760D01*
X1901630Y-14121447D01*
X2055222Y-13434136D01*
X2987178Y-11972876D01*
X3919134Y-10511617D01*
X4000192Y-10388752D01*
X4081251Y-10265887D01*
X3778432Y-10074640D01*
X3475614Y-9883392D01*
X3489328Y-9826377D01*
X3503042Y-9769361D01*
X5103042Y-7279941D01*
X5444750Y-6884351D01*
X5786458Y-6488760D01*
X6021810Y-6237331D01*
X6257163Y-5985903D01*
X6365816Y-5871348D01*
X6474469Y-5756794D01*
X7435375Y-4934474D01*
X7523697Y-4865903D01*
X7612020Y-4797332D01*
X7572556Y-4865903D01*
X7533092Y-4934475D01*
X4652578Y-9414475D01*
X4123042Y-10236925D01*
X4178756Y-10290181D01*
X4234469Y-10343436D01*
X5167668Y-10942857D01*
X6100866Y-11542279D01*
X6320793Y-11118376D01*
X6540720Y-10694475D01*
X6599023Y-10594578D01*
X6657326Y-10494682D01*
X7074615Y-9886007D01*
X7491904Y-9277331D01*
X8057472Y-8648994D01*
X8623040Y-8020656D01*
X9811612Y-7003324D01*
X10497327Y-6545304D01*
X10904627Y-6273249D01*
X16268735Y-6273249D01*
X16331294Y-6374473D01*
X16409850Y-6374473D01*
X16483326Y-6346279D01*
X16556803Y-6318083D01*
X16504326Y-6254851D01*
X16451848Y-6191618D01*
X16567500Y-6052266D01*
X16516164Y-6000929D01*
X16463225Y-6099845D01*
X16410287Y-6198762D01*
X16462466Y-6334737D01*
X16365600Y-6303993D01*
X16268735Y-6273249D01*
X10904627Y-6273249D01*
X11183040Y-6087284D01*
X11820282Y-5780189D01*
X16366216Y-5780189D01*
X16422722Y-5871617D01*
X16463041Y-5871617D01*
X16463041Y-5780189D01*
X16366216Y-5780189D01*
X11820282Y-5780189D01*
X11968229Y-5708891D01*
X12753417Y-5330498D01*
X13078726Y-5225725D01*
X13404034Y-5120953D01*
X13646825Y-4643772D01*
X17263041Y-4643772D01*
X17445897Y-4722348D01*
X17468737Y-4728788D01*
X17468754Y-4683046D01*
X17468754Y-4637332D01*
X17365899Y-4640552D01*
X17263041Y-4643772D01*
X13646825Y-4643772D01*
X13847808Y-4248761D01*
X14017327Y-3952197D01*
X14047053Y-3951909D01*
X14076779Y-3951619D01*
X14131613Y-4180190D01*
X14186448Y-4408762D01*
X14245900Y-4407842D01*
X14302025Y-4301454D01*
X20417327Y-4301454D01*
X20440184Y-4328362D01*
X20463042Y-4355270D01*
X20871520Y-4678382D01*
X20914744Y-4635158D01*
X20848891Y-4574720D01*
X20783042Y-4514286D01*
X20417327Y-4301454D01*
X14302025Y-4301454D01*
X14577260Y-3779730D01*
X14908619Y-3151619D01*
X15235075Y-2557333D01*
X15374695Y-2305905D01*
X15514314Y-2054476D01*
X15553714Y-2011410D01*
X15596243Y-2078657D01*
X15638771Y-2145905D01*
X15642690Y-2305905D01*
X15646610Y-2465905D01*
X15680224Y-2551444D01*
X15713838Y-2636984D01*
X15784795Y-2528587D01*
X15855751Y-2420191D01*
X15976538Y-2181710D01*
X16097326Y-1943230D01*
X16097326Y-1936620D01*
X16188755Y-1936620D01*
X17034469Y-2560600D01*
X17263040Y-2729006D01*
X17491612Y-2897412D01*
X17525898Y-2898801D01*
X17560184Y-2900189D01*
X17567041Y-2740189D01*
X17573901Y-2580189D01*
X17578843Y-2521595D01*
X17628755Y-2521595D01*
X17697327Y-2594309D01*
X17765898Y-2667022D01*
X19228755Y-3765386D01*
X19343039Y-3768760D01*
X19342341Y-3711617D01*
X19341641Y-3654474D01*
X19308055Y-3604633D01*
X19274470Y-3554792D01*
X18520184Y-3075146D01*
X17765898Y-2595499D01*
X17697327Y-2558547D01*
X17628755Y-2521595D01*
X17578843Y-2521595D01*
X17583060Y-2471593D01*
X16946483Y-2069778D01*
X16309927Y-1667963D01*
X16188755Y-1768526D01*
X16188755Y-1936620D01*
X16097326Y-1936620D01*
X16097326Y-1897358D01*
X15598373Y-1528760D01*
X15536977Y-1528760D01*
X15567297Y-1757332D01*
X15597619Y-1985903D01*
X15506098Y-1985903D01*
X15210212Y-1771317D01*
X14914325Y-1556730D01*
X14953335Y-1493612D01*
X15262473Y-1431186D01*
X15571612Y-1368760D01*
X19685897Y-1368760D01*
X20485896Y-1522321D01*
X21285895Y-1675881D01*
X21605895Y-1755076D01*
X21925894Y-1834271D01*
X22771609Y-2109548D01*
X23617324Y-2384826D01*
X24143038Y-2624203D01*
X24668753Y-2863580D01*
X25148753Y-3135470D01*
X25148753Y-3167110D01*
X24388777Y-4347935D01*
X23628802Y-5528760D01*
X23542424Y-5651002D01*
X23456044Y-5773245D01*
X22420094Y-5284601D01*
X22012995Y-5163350D01*
X21605899Y-5042099D01*
X21217326Y-4908676D01*
X20828755Y-4775252D01*
X20087392Y-4638797D01*
X19346030Y-4502342D01*
X18502261Y-4448711D01*
X17658490Y-4395078D01*
X17485252Y-4477284D01*
X17312014Y-4559491D01*
X17502394Y-4629917D01*
X17525159Y-4749001D01*
X17547923Y-4868084D01*
X17508339Y-4892548D01*
X17468754Y-4917012D01*
X17468754Y-4774472D01*
X17377326Y-4774472D01*
X17377326Y-4906221D01*
X17326502Y-4937632D01*
X17275676Y-4969044D01*
X17207156Y-4858172D01*
X17182235Y-4953466D01*
X17157315Y-5048759D01*
X17057326Y-5048759D01*
X17057326Y-4957331D01*
X17154151Y-4957331D01*
X17090386Y-4854163D01*
X17055140Y-4917177D01*
X17019892Y-4980191D01*
X17043938Y-5105905D01*
X17067982Y-5231619D01*
X17148753Y-5231619D01*
X17148753Y-5332831D01*
X17080184Y-5306514D01*
X17011612Y-5280201D01*
X17011612Y-5368761D01*
X16884252Y-5368761D01*
X16832748Y-5502977D01*
X16877212Y-5530457D01*
X16921674Y-5557937D01*
X16895696Y-5599969D01*
X16869720Y-5642001D01*
X16940666Y-5614777D01*
X17011612Y-5587550D01*
X17011612Y-5688761D01*
X16871600Y-5688761D01*
X16818076Y-5549285D01*
X16757560Y-5599509D01*
X16697043Y-5649733D01*
X16747103Y-5780193D01*
X16594783Y-5780193D01*
X16646462Y-5863813D01*
X16531605Y-5910117D01*
X16645890Y-5917317D01*
X16645890Y-6068629D01*
X16813090Y-5917317D01*
X16881098Y-5917317D01*
X16786359Y-6037782D01*
X16691612Y-6158233D01*
X16691612Y-6283045D01*
X16600184Y-6283045D01*
X16600184Y-6384256D01*
X16680184Y-6355907D01*
X16760184Y-6327557D01*
X16646638Y-6416419D01*
X16533092Y-6505279D01*
X16485900Y-6443047D01*
X16280184Y-6435807D01*
X16280184Y-6557351D01*
X16382808Y-6557351D01*
X16334086Y-6616057D01*
X16285364Y-6674765D01*
X16362480Y-7016689D01*
X16320724Y-7176365D01*
X16408008Y-7564837D01*
X16257328Y-7644733D01*
X15754470Y-7745849D01*
X15251612Y-7846982D01*
X14610960Y-8064973D01*
X13970308Y-8282965D01*
X13407373Y-8565156D01*
X12844438Y-8847346D01*
X11777326Y-9544462D01*
X11251612Y-9993184D01*
X10725897Y-10441906D01*
X10288832Y-10933904D01*
X9851768Y-11425903D01*
X9542566Y-11871617D01*
X9233364Y-12317332D01*
X9167122Y-12317332D01*
X9109008Y-12478042D01*
X9050894Y-12638753D01*
X9001332Y-12608122D01*
X8951770Y-12577490D01*
X8976324Y-12618841D01*
X9000876Y-12660191D01*
X8960074Y-12768262D01*
X8919272Y-12876332D01*
X8829092Y-12852749D01*
X8738912Y-12829167D01*
X8831971Y-13003050D01*
X8731931Y-13003050D01*
X8760183Y-13048765D01*
X8788435Y-13094479D01*
X8688663Y-13094479D01*
X8605974Y-13300194D01*
X8600174Y-13094479D01*
X8411928Y-13094479D01*
X8440183Y-13140189D01*
X8468436Y-13185903D01*
X8371612Y-13185903D01*
X8371612Y-13058543D01*
X8346118Y-13048760D01*
X8554469Y-13048760D01*
X8645897Y-13048760D01*
X8645897Y-12957331D01*
X8554469Y-12957331D01*
X8554469Y-13048760D01*
X8346118Y-13048760D01*
X8226992Y-13003047D01*
X8145912Y-13003047D01*
D11*
%TO.C,H2*%
X25034523Y-6861904D02*
X25034523Y-6061904D01*
X25034523Y-6442857D02*
X24577380Y-6442857D01*
X24577380Y-6861904D02*
X24577380Y-6061904D01*
X24234523Y-6138095D02*
X24196428Y-6100000D01*
X24120238Y-6061904D01*
X23929761Y-6061904D01*
X23853571Y-6100000D01*
X23815476Y-6138095D01*
X23777380Y-6214285D01*
X23777380Y-6290476D01*
X23815476Y-6404761D01*
X24272619Y-6861904D01*
X23777380Y-6861904D01*
%TO.C,D3*%
X16686904Y-30877380D02*
X16686904Y-29877380D01*
X16925000Y-29877380D01*
X17067857Y-29925000D01*
X17163095Y-30020238D01*
X17210714Y-30115476D01*
X17258333Y-30305952D01*
X17258333Y-30448809D01*
X17210714Y-30639285D01*
X17163095Y-30734523D01*
X17067857Y-30829761D01*
X16925000Y-30877380D01*
X16686904Y-30877380D01*
X17591666Y-29877380D02*
X18210714Y-29877380D01*
X17877380Y-30258333D01*
X18020238Y-30258333D01*
X18115476Y-30305952D01*
X18163095Y-30353571D01*
X18210714Y-30448809D01*
X18210714Y-30686904D01*
X18163095Y-30782142D01*
X18115476Y-30829761D01*
X18020238Y-30877380D01*
X17734523Y-30877380D01*
X17639285Y-30829761D01*
X17591666Y-30782142D01*
%TO.C,D4*%
X4877380Y-18163095D02*
X3877380Y-18163095D01*
X3877380Y-17925000D01*
X3925000Y-17782142D01*
X4020238Y-17686904D01*
X4115476Y-17639285D01*
X4305952Y-17591666D01*
X4448809Y-17591666D01*
X4639285Y-17639285D01*
X4734523Y-17686904D01*
X4829761Y-17782142D01*
X4877380Y-17925000D01*
X4877380Y-18163095D01*
X4210714Y-16734523D02*
X4877380Y-16734523D01*
X3829761Y-16972619D02*
X4544047Y-17210714D01*
X4544047Y-16591666D01*
%TO.C,D1*%
X16686904Y-4877380D02*
X16686904Y-3877380D01*
X16925000Y-3877380D01*
X17067857Y-3925000D01*
X17163095Y-4020238D01*
X17210714Y-4115476D01*
X17258333Y-4305952D01*
X17258333Y-4448809D01*
X17210714Y-4639285D01*
X17163095Y-4734523D01*
X17067857Y-4829761D01*
X16925000Y-4877380D01*
X16686904Y-4877380D01*
X18210714Y-4877380D02*
X17639285Y-4877380D01*
X17925000Y-4877380D02*
X17925000Y-3877380D01*
X17829761Y-4020238D01*
X17734523Y-4115476D01*
X17639285Y-4163095D01*
%TO.C,H1*%
X11034523Y-22861904D02*
X11034523Y-22061904D01*
X11034523Y-22442857D02*
X10577380Y-22442857D01*
X10577380Y-22861904D02*
X10577380Y-22061904D01*
X9777380Y-22861904D02*
X10234523Y-22861904D01*
X10005952Y-22861904D02*
X10005952Y-22061904D01*
X10082142Y-22176190D01*
X10158333Y-22252380D01*
X10234523Y-22290476D01*
%TO.C,D2*%
X30877380Y-18163095D02*
X29877380Y-18163095D01*
X29877380Y-17925000D01*
X29925000Y-17782142D01*
X30020238Y-17686904D01*
X30115476Y-17639285D01*
X30305952Y-17591666D01*
X30448809Y-17591666D01*
X30639285Y-17639285D01*
X30734523Y-17686904D01*
X30829761Y-17782142D01*
X30877380Y-17925000D01*
X30877380Y-18163095D01*
X29972619Y-17210714D02*
X29925000Y-17163095D01*
X29877380Y-17067857D01*
X29877380Y-16829761D01*
X29925000Y-16734523D01*
X29972619Y-16686904D01*
X30067857Y-16639285D01*
X30163095Y-16639285D01*
X30305952Y-16686904D01*
X30877380Y-17258333D01*
X30877380Y-16639285D01*
%TO.C,J5*%
X12007380Y-17091666D02*
X12721666Y-17091666D01*
X12864523Y-17044047D01*
X12959761Y-16948809D01*
X13007380Y-16805952D01*
X13007380Y-16710714D01*
X12007380Y-18044047D02*
X12007380Y-17567857D01*
X12483571Y-17520238D01*
X12435952Y-17567857D01*
X12388333Y-17663095D01*
X12388333Y-17901190D01*
X12435952Y-17996428D01*
X12483571Y-18044047D01*
X12578809Y-18091666D01*
X12816904Y-18091666D01*
X12912142Y-18044047D01*
X12959761Y-17996428D01*
X13007380Y-17901190D01*
X13007380Y-17663095D01*
X12959761Y-17567857D01*
X12912142Y-17520238D01*
D12*
X18185000Y-18755000D02*
X21295000Y-18755000D01*
X20725000Y-18755000D02*
X21295000Y-18755000D01*
X13555000Y-18755000D02*
X16665000Y-18755000D01*
X13555000Y-16095000D02*
X14125000Y-16095000D01*
X15645000Y-16095000D02*
X19205000Y-16095000D01*
X13555000Y-16095000D02*
X13555000Y-18755000D01*
X14125000Y-16095000D02*
X14125000Y-14575000D01*
X21295000Y-16095000D02*
X21295000Y-18755000D01*
%TO.C,D7*%
X26531910Y-29225987D02*
X26082898Y-29675000D01*
X29225987Y-26531910D02*
X29675000Y-26082898D01*
X32818090Y-30124013D02*
X33267102Y-29675000D01*
X29315790Y-33267102D02*
G75*
G03*
X30034210Y-33267102I359210J0D01*
G01*
%TO.C,D5*%
X8318090Y-5624013D02*
X8767102Y-5175000D01*
X2031910Y-4725987D02*
X1582898Y-5175000D01*
X5624013Y-8318090D02*
X5175000Y-8767102D01*
X5534210Y-1582898D02*
G75*
G03*
X4815790Y-1582898I-359210J0D01*
G01*
%TO.C,D8*%
X5624013Y-26531910D02*
X5175000Y-26082898D01*
X8318090Y-29225987D02*
X8767102Y-29675000D01*
X4725987Y-32818090D02*
X5175000Y-33267102D01*
X1582898Y-29315790D02*
G75*
G03*
X1582898Y-30034210I0J-359210D01*
G01*
%TO.C,D6*%
X26531910Y-5624013D02*
X26082898Y-5175000D01*
X29225987Y-8318090D02*
X29675000Y-8767102D01*
X30124013Y-2031910D02*
X29675000Y-1582898D01*
X33267102Y-5534210D02*
G75*
G03*
X33267102Y-4815790I0J359210D01*
G01*
%TD*%
%LPC*%
D13*
%TO.C,H2*%
X24425000Y-9425000D03*
%TD*%
%TO.C,H1*%
X10425000Y-25425000D03*
%TD*%
D14*
%TO.C,J5*%
X14885000Y-15770000D03*
X17425000Y-19080000D03*
X19965000Y-15770000D03*
%TD*%
D15*
%TO.C,D7*%
X29073959Y-32538782D03*
X26811218Y-30276041D03*
X30276041Y-26811218D03*
X32538782Y-29073959D03*
%TD*%
D16*
%TO.C,D5*%
X5776041Y-2311218D03*
X8038782Y-4573959D03*
X4573959Y-8038782D03*
X2311218Y-5776041D03*
%TD*%
D17*
%TO.C,D8*%
X2311218Y-29073959D03*
X4573959Y-26811218D03*
X8038782Y-30276041D03*
X5776041Y-32538782D03*
%TD*%
D18*
%TO.C,D6*%
X32538782Y-5776041D03*
X30276041Y-8038782D03*
X26811218Y-4573959D03*
X29073959Y-2311218D03*
%TD*%
M02*
